<?xml version="1.0" encoding="UTF-8" standalone="no"?>
<svg
   preserveAspectRatio="xMidYMid"
   data-bbox="20.045 12.528 99.726 33.339"
   viewBox="17.045 11.528 28.171544 28.171544"
   height="48"
   width="48"
   data-type="color"
   role="img"
   aria-label="Logotype of Liquio"
   version="1.1"
   id="svg1"
   sodipodi:docname="faviconLiquio.svg"
   inkscape:version="1.4.3 (fcd0343856, 2026-01-01)"
   xmlns:inkscape="http://www.inkscape.org/namespaces/inkscape"
   xmlns:sodipodi="http://sodipodi.sourceforge.net/DTD/sodipodi-0.dtd"
   xmlns="http://www.w3.org/2000/svg"
   xmlns:svg="http://www.w3.org/2000/svg">
  <defs
     id="defs1" />
  <sodipodi:namedview
     id="namedview1"
     pagecolor="#ffffff"
     bordercolor="#000000"
     borderopacity="0.25"
     inkscape:showpageshadow="2"
     inkscape:pageopacity="0.0"
     inkscape:pagecheckerboard="0"
     inkscape:deskcolor="#d1d1d1"
     inkscape:zoom="3.6239223"
     inkscape:cx="63.191201"
     inkscape:cy="24.14511"
     inkscape:window-width="1536"
     inkscape:window-height="923"
     inkscape:window-x="0"
     inkscape:window-y="0"
     inkscape:window-maximized="1"
     inkscape:current-layer="g1" />
  <g
     id="g1">
    <path
       fill="#616fff"
       d="m 39.064,20.073 c 0.507733,-0.0011 0.87754,0.48087 0.745,0.971 l -4.57,17.019 c -0.07888,0.291504 -0.343014,0.494215 -0.645,0.495 h -4.298 c -0.22,0 -0.38,-0.21 -0.322,-0.422 l 0.691,-2.546 h 0.002 l 4.027,-15.021 c 0.07888,-0.291504 0.343014,-0.494215 0.645,-0.495 z m -7.337,-7.545 c 0.22,0 0.38,0.208 0.323,0.42 l -6.728,25.06 c -0.07925,0.291107 -0.343298,0.493338 -0.645,0.494 h -4.298 c -0.22,0 -0.38,-0.21 -0.322,-0.422 l 0.692,-2.544 6.034,-22.514 c 0.07925,-0.291107 0.343298,-0.493338 0.645,-0.494 z m 9.917,0.053 c 0.22,0 0.379,0.21 0.322,0.421 l -0.926,3.45 c -0.07878,0.291147 -0.342386,0.493765 -0.644,0.495 h -4.298 c -0.219117,-4.84e-4 -0.37842,-0.208271 -0.322,-0.42 l 0.924,-3.45 c 0.0785,-0.291901 0.34273,-0.495092 0.645,-0.496 z"
       data-color="1"
       id="path1"
       sodipodi:nodetypes="ccccsccccccscccsccccsscccccccs" />
  </g>
</svg>
