<svg width="24" height="24" viewBox="0 0 24 24" fill="none" xmlns="http://www.w3.org/2000/svg">
<path fill-rule="evenodd" clip-rule="evenodd" d="M17.7072 3.29304L17 2.58594L16.2929 3.29304L8.79294 10.793L8.55724 11.0287L8.5101 11.3587L8.0101 14.8587L7.82153 16.1787L9.14147 15.9901L12.6415 15.4901L12.9714 15.443L13.2072 15.2073L20.7072 7.70726L21.4143 7.00015L20.7072 6.29304L17.7072 3.29304ZM10.1786 13.8216L10.4429 11.9716L14.7072 7.70724L16.293 9.29303L12.0286 13.5573L10.1786 13.8216ZM17.7072 7.87882L18.5858 7.00015L17 5.41436L16.1214 6.29303L17.7072 7.87882Z" fill="black"/>
<path d="M9.07407 6H5V19H17V15" stroke="black" stroke-width="2"/>
</svg>
