<svg width="48" height="48" viewBox="0 0 48 48" fill="none" xmlns="http://www.w3.org/2000/svg">
<rect width="48" height="48" rx="12" fill="white"/>
<mask id="mask0_2520_744" style="mask-type:alpha" maskUnits="userSpaceOnUse" x="12" y="12" width="24" height="24">
<rect x="12" y="12" width="24" height="24" fill="#D9D9D9"/>
</mask>
<g mask="url(#mask0_2520_744)">
<path d="M19 27C19.8333 27 20.5417 26.7083 21.125 26.125C21.7083 25.5417 22 24.8333 22 24C22 23.1667 21.7083 22.4583 21.125 21.875C20.5417 21.2917 19.8333 21 19 21C18.1667 21 17.4583 21.2917 16.875 21.875C16.2917 22.4583 16 23.1667 16 24C16 24.8333 16.2917 25.5417 16.875 26.125C17.4583 26.7083 18.1667 27 19 27ZM19 30C17.3333 30 15.9167 29.4167 14.75 28.25C13.5833 27.0833 13 25.6667 13 24C13 22.3333 13.5833 20.9167 14.75 19.75C15.9167 18.5833 17.3333 18 19 18C20.35 18 21.5292 18.3833 22.5375 19.15C23.5458 19.9167 24.25 20.8667 24.65 22H33.025L35 23.975L31.5 27.975L29 26L27 28L25 26H24.65C24.2333 27.2 23.5083 28.1667 22.475 28.9C21.4417 29.6333 20.2833 30 19 30Z" fill="#030303"/>
</g>
</svg>
