<svg width="24" height="24" viewBox="0 0 24 24" fill="none" xmlns="http://www.w3.org/2000/svg">
<path d="M12.0059 24C5.28523 24 3.47928 23.6632 1.91516 22.0994C0.327645 20.5123 0 18.7161 0 12C0 5.28387 0.339347 3.48774 1.90346 1.91226C3.47538 0.336774 5.28523 0 12.0059 0C18.7265 0 20.5324 0.336774 22.0965 1.90065C23.6724 3.47613 24 5.27226 24 11.9884C24 18.7045 23.6724 20.5006 22.0965 22.0761C20.5324 23.6516 18.7265 24 12.0059 24ZM16.706 11.9884C16.2496 11.9884 15.9493 11.6865 15.9493 11.2413C15.9493 10.7961 16.2535 10.5058 16.706 10.5058H17.9074V12H16.706V11.9884ZM18.9098 9.63097H16.6007C15.6216 9.63097 14.943 10.2735 14.943 11.1948C14.943 11.9303 15.3642 12.4761 16.0273 12.6774L14.7674 14.6013H15.8869L17.0297 12.8516H17.9269V14.6013H18.9293V9.63484H18.9059L18.9098 9.63097ZM6.38128 10.9355V9.42968H8.32765V13.6761H5.87811C6.14724 13.2348 6.38128 12.1703 6.38128 10.9355ZM9.35739 8.47355H5.39054V10.9703C5.39054 12.24 5.16821 13.231 4.86397 13.6877H4.3842V15.9484H5.36324V14.609H9.07265V15.9484H10.0517V13.6877H9.34178V8.47355H9.35349H9.35739ZM12.3569 13.7574L12.2633 13.6994L13.4178 9.64258H11.0853L10.8279 10.5523L12.1931 10.5406L11.3077 13.6413C11.1555 14.2026 11.53 14.7252 12.158 14.7252C12.3569 14.7252 12.5441 14.6787 12.7665 14.5394L14.3657 13.4555L13.8742 12.7316L12.3569 13.7574ZM13.0317 8.69806C13.5349 8.69806 13.7299 8.51226 13.7299 8.07871C13.7299 7.62581 13.5193 7.43613 13.0317 7.43613C12.5441 7.43613 12.3335 7.62194 12.3335 8.07871C12.3335 8.50839 12.5441 8.69806 13.0317 8.69806Z" fill="white"/>
</svg>
