<svg width="32" height="30" viewBox="0 0 32 30" fill="none" xmlns="http://www.w3.org/2000/svg">
<path fill-rule="evenodd" clip-rule="evenodd" d="M15 26.6667C15.5658 26.6667 16.1223 26.6263 16.6667 26.5485V29.9085C16.1195 29.969 15.5633 30 15 30C6.71573 30 0 23.2843 0 15C0 6.71573 6.71573 0 15 0C23.2843 0 30 6.71573 30 15H26.6667C26.6667 8.55668 21.4433 3.33333 15 3.33333C8.55668 3.33333 3.33333 8.55668 3.33333 15C3.33333 21.4433 8.55668 26.6667 15 26.6667ZM13.3333 6.66667H16.6667V14.3097L19.5118 17.1548L17.1548 19.5118L13.3333 15.6903V6.66667ZM20 27.6667L22.3333 30L25.8333 26.5417L29.3333 30L31.6667 27.6667L28.2083 24.1667L31.6667 20.6667L29.3333 18.3333L25.8333 21.8333L22.3333 18.3333L20 20.6667L23.5 24.1667L20 27.6667Z" fill="#B01038"/>
</svg>
