<?xml version="1.0" encoding="utf-8"?>
<svg version="1.1" id="layer" xmlns="http://www.w3.org/2000/svg" xmlns:xlink="http://www.w3.org/1999/xlink" x="0px" y="0px"
	 viewBox="0 0 26.2 36.6" style="enable-background:new 0 0 26.2 36.6;" xml:space="preserve">
<style type="text/css">
	.st0{
	fill:url(#SVGID_1_);
}
	.st1{
	fill:none;stroke:url(#SVGID_2_);
	stroke-width:0.6;
	stroke-dasharray: 110;
    stroke-dashoffset: 0;
    -webkit-animation: dash 60s linear infinite;
    -o-animation: dash 60s linear infinite;
    -moz-animation: dash 60s linear infinite;
    animation: dash 60s linear infinite;
}

@-webkit-keyframes dash {
    from {
        stroke-dashoffset: 2000;
    }
    to {
        stroke-dashoffset: 0;
    }
}
</style>
<linearGradient id="SVGID_1_" gradientUnits="userSpaceOnUse" x1="-12.0112" y1="-14.8555" x2="31.4636" y2="40.7421" gradientTransform="matrix(1 0 0 -1 0 38.5499)">
	<stop  offset="0" style="stop-color:#24CEC1"/>
	<stop  offset="1" style="stop-color:#005BBB"/>

</linearGradient>
<path class="st0" d="M5.2,28.3c2.8,2,6.6,0.7,7.8-2.5c0.7,1.8,2.3,3.2,4.2,3.4c1.8,0.2,3.5-0.5,4.7-1.9c0.2,0.3,0.4,0.6,0.7,0.9
	c0.4-1.5,0.6-3.3,0.3-4.9c-0.7,1.1-1.5,2-2.6,2.6c0.3,0.2,0.6,0.4,0.9,0.6c-1,1.3-2.8,1.8-4.4,1.3c-1.6-0.6-2.6-2.1-2.9-3.8
	c0.8,0.9,1.9,1.4,3.1,1.2c1.1-0.2,2.1-0.8,2.6-1.8c0.2,0.3,0.4,0.5,0.6,0.8c0.3-1.2,0.5-2.6,0.3-3.9c-0.5,0.9-1.2,1.7-2.1,2.3
	c0.2,0.1,0.4,0.2,0.7,0.3c-1,2.3-4.4,1.6-5.1-0.6c-0.2-0.6,0-1.4,0-2c0.2-2.9,0.3-5.7,0.5-8.6c0-0.8,0.1-1.5,0.1-2.3
	c-0.2,0-0.7,0.1-0.9,0c-0.1,0-0.1-0.4-0.1-0.5c0.1-0.2,0.5-0.2,0.7-0.4c1.2-0.7,1.6-2.4,0.7-3.6c-0.8-1.1-2.5-1.3-3.6-0.4
	s-1.2,2.7-0.1,3.7c0.3,0.3,0.6,0.4,0.9,0.6c0.2,0.1,0.2,0,0.2,0.2v0.4c-0.1,0.1-0.7,0-0.9,0c0.1,2,0.2,4,0.3,6
	c0.1,1.5,0.2,2.9,0.2,4.4c0,0.7,0.2,1.6,0.1,2.3c-0.1,0.9-1.2,1.8-2,2.1C9,24.9,7.6,24.3,7,23.1c0.2-0.1,0.4-0.2,0.7-0.3
	c-0.9-0.6-1.6-1.4-2.1-2.3c-0.2,1.3-0.1,2.7,0.3,3.9c0.2-0.3,0.4-0.5,0.6-0.8c0.5,1,1.5,1.6,2.6,1.8c1.2,0.2,2.3-0.4,3.1-1.2
	c-0.2,1.6-1.1,3.1-2.6,3.7C7.9,28.5,6,28,4.9,26.6c0.3-0.2,0.6-0.4,0.9-0.6c-1.1-0.6-2-1.5-2.6-2.6C3,25,3.1,26.7,3.5,28.3
	C3.7,28,4,27.7,4.2,27.4C4.5,27.7,4.8,28,5.2,28.3z M11.1,6.7c0-1.6,1.8-2.5,3.1-1.6s0.9,3-0.6,3.4c0-0.2,0.1-0.6,0-0.7
	s-0.4-0.1-0.5-0.1s-0.5-0.1-0.5,0c-0.1,0.1,0,0.6,0,0.8C11.6,8.3,11.1,7.5,11.1,6.7z"/>
<linearGradient id="SVGID_2_" gradientUnits="userSpaceOnUse" x1="0.1237" y1="20.3722" x2="25.8717" y2="20.3722" gradientTransform="matrix(1 0 0 -1 0 38.5499)">
	<stop  offset="0" style="stop-color:#24CEC1"/>
	<stop  offset="1" style="stop-color:#005BBB"/>
</linearGradient>
<path class="st1" d="M13,36.1c6.1,0,11.5-4.6,12.4-10.6c0.2-1.1,0.2-2.3,0.2-3.4c0-1.6,0-3.2,0-4.9c0-4.2,0-8.5,0-12.7
	c0-1.3,0-2.5,0-3.8c0-0.1,0-0.4,0-0.4c-0.1-0.1-0.6,0-0.7,0c-3.4,0-6.8,0-10.2,0c-4,0-7.9,0-11.9,0c-0.5,0-1.1,0-1.6,0
	c-0.1,0-0.6-0.1-0.7,0s0,0.4,0,0.4c0,0.5,0,1,0,1.5c0,4,0,7.9,0,11.9c0,3.1,0,6.1,0,9.2c0,5.3,3.2,10.2,8.2,12
	C10,35.8,11.5,36.1,13,36.1z M0.7,0.6c2.4,0,4.7,0,7.1,0c4.2,0,8.3,0,12.5,0c1.4,0,2.8,0,4.2,0c0.1,0,0.7-0.1,0.8,0
	c0.1,0.1,0,0.2,0,0.3c0,3.2,0,6.3,0,9.5c0,3.8,0,7.6,0,11.5c0,1,0,2-0.1,2.9c-0.3,2.9-1.7,5.7-3.8,7.7C17,36.6,10,36.9,5.3,33.1
	c-2.3-1.8-3.8-4.4-4.4-7.2c-0.2-1.2-0.2-2.4-0.2-3.6c0-3.7,0-7.4,0-11c0-3.4,0-6.7,0-10.1C0.7,1,0.7,0.8,0.7,0.6z"/>
</svg>
