<svg width="24" height="24" viewBox="0 0 24 24" fill="none" xmlns="http://www.w3.org/2000/svg">
<g clip-path="url(#clip0_253_1156)">
<path d="M12.004 23.5C8.63807 23.5 6.5501 23.4137 5.11407 23.1429C3.71384 22.8789 2.96389 22.4453 2.25932 21.7407C1.55056 21.0319 1.11715 20.2819 0.854145 18.8841C0.584309 17.4501 0.5 15.3662 0.5 12.004C0.5 8.63807 0.58627 6.5521 0.857062 5.1171C1.12101 3.71836 1.5545 2.96784 2.25974 2.2589C2.96419 1.55457 3.71411 1.12108 5.11407 0.857073C6.5501 0.586268 8.63807 0.5 12.004 0.5C15.3698 0.5 17.4578 0.586268 18.8938 0.857073C20.2941 1.12113 21.044 1.55475 21.7486 2.25932C22.4573 2.96804 22.8907 3.71802 23.1538 5.11678C23.4236 6.55184 23.5079 8.63772 23.5079 12.004C23.5079 15.3702 23.4236 17.4541 23.1538 18.8881C22.8909 20.2848 22.4579 21.0353 21.749 21.7482C21.0406 22.449 20.2881 22.8808 18.8882 23.1439C17.452 23.4137 15.3658 23.5 12.004 23.5Z" stroke="white"/>
<path d="M16.7098 11.9884C16.2511 11.9884 15.9506 11.6879 15.9506 11.2371C15.9506 10.8022 16.2511 10.5017 16.7098 10.5017H17.9039V11.9884H16.7098ZM18.9081 9.63976H16.5912C15.6106 9.63976 14.9385 10.2803 14.9385 11.2055C14.9385 11.933 15.3576 12.4865 16.0218 12.6842L14.7566 14.6058H15.8716L17.0103 12.8582H17.9039V14.6058H18.9081V9.63976ZM6.38228 10.9366V9.44207H8.32758V13.6885H5.88409C6.14505 13.2378 6.38228 12.1781 6.38228 10.9366ZM9.35559 8.47732H5.3859V10.9762C5.3859 12.2493 5.16449 13.2457 4.86399 13.6885H4.38953V15.958H5.37009V14.6137H9.08673V15.958H10.0673V13.6885H9.35559V8.47732ZM12.3526 13.7597L12.2656 13.7043L13.4202 9.63976H11.0795L10.8264 10.5412L12.1866 10.5333L11.3009 13.6332C11.1427 14.1946 11.5223 14.7244 12.147 14.7244C12.3447 14.7244 12.5345 14.677 12.748 14.5426L14.3454 13.4592L13.863 12.7396L12.3526 13.7597ZM13.0327 8.70665C13.5309 8.70665 13.7365 8.52477 13.7365 8.08193C13.7365 7.62328 13.523 7.44141 13.0327 7.44141C12.5503 7.44141 12.3289 7.62328 12.3289 8.08193C12.3289 8.51686 12.5345 8.70665 13.0327 8.70665Z" fill="white"/>
</g>
<defs>
<clipPath id="clip0_253_1156">
<rect width="24" height="24" fill="white"/>
</clipPath>
</defs>
</svg>
