<svg width="25" height="24" viewBox="0 0 25 24" fill="none" xmlns="http://www.w3.org/2000/svg">
    <path d="M12.333 22C10.9497 22 9.64967 21.7375 8.43301 21.2125C7.21634 20.6875 6.15801 19.975 5.25801 19.075C4.35801 18.175 3.64551 17.1167 3.12051 15.9C2.59551 14.6833 2.33301 13.3833 2.33301 12C2.33301 10.6167 2.59551 9.31667 3.12051 8.1C3.64551 6.88333 4.35801 5.825 5.25801 4.925C6.15801 4.025 7.21634 3.3125 8.43301 2.7875C9.64967 2.2625 10.9497 2 12.333 2C13.7163 2 15.0163 2.2625 16.233 2.7875C17.4497 3.3125 18.508 4.025 19.408 4.925C20.308 5.825 21.0205 6.88333 21.5455 8.1C22.0705 9.31667 22.333 10.6167 22.333 12C22.333 13.3833 22.0705 14.6833 21.5455 15.9C21.0205 17.1167 20.308 18.175 19.408 19.075C18.508 19.975 17.4497 20.6875 16.233 21.2125C15.0163 21.7375 13.7163 22 12.333 22ZM12.333 20C14.5663 20 16.458 19.225 18.008 17.675C19.558 16.125 20.333 14.2333 20.333 12C20.333 9.76667 19.558 7.875 18.008 6.325C16.458 4.775 14.5663 4 12.333 4C10.0997 4 8.20801 4.775 6.65801 6.325C5.10801 7.875 4.33301 9.76667 4.33301 12C4.33301 14.2333 5.10801 16.125 6.65801 17.675C8.20801 19.225 10.0997 20 12.333 20ZM9.33301 17H13.333C13.883 17 14.3538 16.8042 14.7455 16.4125C15.1372 16.0208 15.333 15.55 15.333 15V13.5C15.333 13.0667 15.1913 12.7083 14.908 12.425C14.6247 12.1417 14.2663 12 13.833 12C14.2663 12 14.6247 11.8583 14.908 11.575C15.1913 11.2917 15.333 10.9333 15.333 10.5V9C15.333 8.45 15.1372 7.97917 14.7455 7.5875C14.3538 7.19583 13.883 7 13.333 7H9.33301V9H13.333V11H11.333V13H13.333V15H9.33301V17Z" fill="white" fill-opacity="0.3"/>
</svg>
