<svg width="25" height="24" viewBox="0 0 25 24" fill="none" xmlns="http://www.w3.org/2000/svg">
    <path d="M12.666 22C11.2827 22 9.98268 21.7375 8.76602 21.2125C7.54935 20.6875 6.49102 19.975 5.59102 19.075C4.69102 18.175 3.97852 17.1167 3.45352 15.9C2.92852 14.6833 2.66602 13.3833 2.66602 12C2.66602 10.6167 2.92852 9.31667 3.45352 8.1C3.97852 6.88333 4.69102 5.825 5.59102 4.925C6.49102 4.025 7.54935 3.3125 8.76602 2.7875C9.98268 2.2625 11.2827 2 12.666 2C14.0493 2 15.3493 2.2625 16.566 2.7875C17.7827 3.3125 18.841 4.025 19.741 4.925C20.641 5.825 21.3535 6.88333 21.8785 8.1C22.4035 9.31667 22.666 10.6167 22.666 12C22.666 13.3833 22.4035 14.6833 21.8785 15.9C21.3535 17.1167 20.641 18.175 19.741 19.075C18.841 19.975 17.7827 20.6875 16.566 21.2125C15.3493 21.7375 14.0493 22 12.666 22ZM12.666 20C14.8993 20 16.791 19.225 18.341 17.675C19.891 16.125 20.666 14.2333 20.666 12C20.666 9.76667 19.891 7.875 18.341 6.325C16.791 4.775 14.8993 4 12.666 4C10.4327 4 8.54102 4.775 6.99102 6.325C5.44102 7.875 4.66602 9.76667 4.66602 12C4.66602 14.2333 5.44102 16.125 6.99102 17.675C8.54102 19.225 10.4327 20 12.666 20ZM9.66602 17H15.666V15H11.666V13H13.666C14.216 13 14.6868 12.8042 15.0785 12.4125C15.4702 12.0208 15.666 11.55 15.666 11V9C15.666 8.45 15.4702 7.97917 15.0785 7.5875C14.6868 7.19583 14.216 7 13.666 7H9.66602V9H13.666V11H11.666C11.116 11 10.6452 11.1958 10.2535 11.5875C9.86185 11.9792 9.66602 12.45 9.66602 13V17Z" fill="white" fill-opacity="0.3"/>
</svg>
