<svg width="24" height="24" viewBox="0 0 24 24" xmlns="http://www.w3.org/2000/svg">
    <path d="M5.6498 10.0251L7.5998 10.8501C7.83314 10.3834 8.0748 9.93344 8.3248 9.50011C8.5748 9.06677 8.8498 8.63344 9.1498 8.20011L7.7498 7.92511L5.6498 10.0251ZM9.1998 12.1001L12.0498 14.9251C12.7498 14.6584 13.4998 14.2501 14.2998 13.7001C15.0998 13.1501 15.8498 12.5251 16.5498 11.8251C17.7165 10.6584 18.629 9.36261 19.2873 7.93761C19.9456 6.51261 20.2331 5.20011 20.1498 4.00011C18.9498 3.91677 17.6331 4.20427 16.1998 4.86261C14.7665 5.52094 13.4665 6.43344 12.2998 7.60011C11.5998 8.30011 10.9748 9.05011 10.4248 9.85011C9.8748 10.6501 9.46647 11.4001 9.1998 12.1001ZM13.6498 10.4751C13.2665 10.0918 13.0748 9.62094 13.0748 9.06261C13.0748 8.50427 13.2665 8.03344 13.6498 7.65011C14.0331 7.26677 14.5081 7.07511 15.0748 7.07511C15.6415 7.07511 16.1165 7.26677 16.4998 7.65011C16.8831 8.03344 17.0748 8.50427 17.0748 9.06261C17.0748 9.62094 16.8831 10.0918 16.4998 10.4751C16.1165 10.8584 15.6415 11.0501 15.0748 11.0501C14.5081 11.0501 14.0331 10.8584 13.6498 10.4751ZM14.1248 18.5001L16.2248 16.4001L15.9498 15.0001C15.5165 15.3001 15.0831 15.5709 14.6498 15.8126C14.2165 16.0543 13.7665 16.2918 13.2998 16.5251L14.1248 18.5001ZM21.9498 2.17511C22.2665 4.19177 22.0706 6.15427 21.3623 8.06261C20.654 9.97094 19.4331 11.7918 17.6998 13.5251L18.1998 16.0001C18.2665 16.3334 18.2498 16.6584 18.1498 16.9751C18.0498 17.2918 17.8831 17.5668 17.6498 17.8001L13.4498 22.0001L11.3498 17.0751L7.0748 12.8001L2.1498 10.7001L6.3248 6.50011C6.55814 6.26677 6.8373 6.10011 7.1623 6.00011C7.4873 5.90011 7.81647 5.88344 8.1498 5.95011L10.6248 6.45011C12.3581 4.71677 14.1748 3.49177 16.0748 2.77511C17.9748 2.05844 19.9331 1.85844 21.9498 2.17511ZM3.9248 15.9751C4.50814 15.3918 5.22064 15.0959 6.0623 15.0876C6.90397 15.0793 7.61647 15.3668 8.1998 15.9501C8.78314 16.5334 9.07064 17.2459 9.0623 18.0876C9.05397 18.9293 8.75814 19.6418 8.1748 20.2251C7.75814 20.6418 7.0623 21.0001 6.0873 21.3001C5.1123 21.6001 3.76647 21.8668 2.0498 22.1001C2.28314 20.3834 2.5498 19.0376 2.8498 18.0626C3.1498 17.0876 3.50814 16.3918 3.9248 15.9751ZM5.3498 17.3751C5.18314 17.5418 5.01647 17.8459 4.8498 18.2876C4.68314 18.7293 4.56647 19.1751 4.4998 19.6251C4.9498 19.5584 5.39564 19.4459 5.8373 19.2876C6.27897 19.1293 6.58314 18.9668 6.7498 18.8001C6.9498 18.6001 7.05814 18.3584 7.0748 18.0751C7.09147 17.7918 6.9998 17.5501 6.7998 17.3501C6.5998 17.1501 6.35814 17.0543 6.0748 17.0626C5.79147 17.0709 5.5498 17.1751 5.3498 17.3751Z" fill="white"/>
</svg>
