<svg width="24" height="24" viewBox="0 0 24 24" xmlns="http://www.w3.org/2000/svg">
    <path d="M16.4 21L15 19.6L16.575 18L15 16.425L16.4 15L18 16.6L19.575 15L21 16.425L19.4 18L21 19.6L19.575 21L18 19.425L16.4 21ZM6 19C6.28333 19 6.52083 18.9042 6.7125 18.7125C6.90417 18.5208 7 18.2833 7 18C7 17.7167 6.90417 17.4792 6.7125 17.2875C6.52083 17.0958 6.28333 17 6 17C5.71667 17 5.47917 17.0958 5.2875 17.2875C5.09583 17.4792 5 17.7167 5 18C5 18.2833 5.09583 18.5208 5.2875 18.7125C5.47917 18.9042 5.71667 19 6 19ZM6 21C5.16667 21 4.45833 20.7083 3.875 20.125C3.29167 19.5417 3 18.8333 3 18C3 17.1667 3.29167 16.4583 3.875 15.875C4.45833 15.2917 5.16667 15 6 15C6.61667 15 7.17917 15.1708 7.6875 15.5125C8.19583 15.8542 8.56667 16.3167 8.8 16.9C9.45 16.7167 9.97917 16.3583 10.3875 15.825C10.7958 15.2917 11 14.6833 11 14V10C11 8.61667 11.4875 7.4375 12.4625 6.4625C13.4375 5.4875 14.6167 5 16 5H17.15L15.575 3.425L17 2L21 6L17 10L15.575 8.6L17.15 7H16C15.1667 7 14.4583 7.29167 13.875 7.875C13.2917 8.45833 13 9.16667 13 10V14C13 15.2167 12.6083 16.2875 11.825 17.2125C11.0417 18.1375 10.05 18.7083 8.85 18.925C8.65 19.5417 8.2875 20.0417 7.7625 20.425C7.2375 20.8083 6.65 21 6 21ZM4.4 9L3 7.6L4.575 6L3 4.425L4.4 3L6 4.6L7.575 3L9 4.425L7.4 6L9 7.6L7.575 9L6 7.425L4.4 9Z" fill="white"/>
</svg>
