<svg width="24" height="24" viewBox="0 0 24 24" fill="none" xmlns="http://www.w3.org/2000/svg">
<g clip-path="url(#clip0_4003_5274)">
<path d="M8 10.7601H7.42C6.62851 10.7315 5.83958 10.8659 5.10217 11.1549C4.36477 11.4439 3.69463 11.8813 3.13334 12.4401L2.97334 12.6268V18.1468H5.69334V15.0135L6.06 14.6001L6.22667 14.4068C7.09462 13.5151 8.17519 12.859 9.36667 12.5001C8.77013 12.0462 8.29966 11.4472 8 10.7601Z" fill="white" fill-opacity="0.7"/>
<path d="M20.8933 12.4201C20.332 11.8613 19.6619 11.4239 18.9245 11.1349C18.1871 10.8459 17.3982 10.7115 16.6067 10.7401C16.3639 10.7408 16.1214 10.7541 15.88 10.7801C15.5747 11.4247 15.1171 11.9853 14.5467 12.4134C15.8187 12.7653 16.9709 13.4567 17.88 14.4134L18.0467 14.6001L18.4067 15.0134V18.1534H21.0333V12.6068L20.8933 12.4201Z" fill="white" fill-opacity="0.7"/>
<path d="M7.4 9.45987H7.60667C7.51064 8.63536 7.65531 7.80069 8.02322 7.0566C8.39113 6.3125 8.96654 5.6908 9.68 5.26654C9.42138 4.87144 9.06458 4.55027 8.64454 4.3345C8.2245 4.11873 7.75562 4.01574 7.28382 4.03562C6.81202 4.0555 6.35347 4.19757 5.95308 4.44792C5.55268 4.69827 5.22417 5.04831 4.9997 5.46377C4.77524 5.87923 4.66252 6.34586 4.67258 6.81797C4.68264 7.29008 4.81514 7.75149 5.0571 8.157C5.29907 8.56252 5.6422 8.89825 6.0529 9.13131C6.46359 9.36437 6.92778 9.48677 7.4 9.48654V9.45987Z" fill="white" fill-opacity="0.7"/>
<path d="M16.2867 8.96004C16.2948 9.11326 16.2948 9.26681 16.2867 9.42004C16.4146 9.44032 16.5438 9.45146 16.6733 9.45337H16.8C17.2701 9.4283 17.7258 9.28192 18.1226 9.02849C18.5193 8.77506 18.8437 8.4232 19.0642 8.00718C19.2846 7.59116 19.3935 7.12515 19.3804 6.65453C19.3673 6.1839 19.2325 5.72469 18.9892 5.32161C18.746 4.91853 18.4024 4.58531 17.9921 4.35439C17.5819 4.12347 17.1188 4.00273 16.648 4.00391C16.1771 4.0051 15.7147 4.12817 15.3055 4.36115C14.8964 4.59413 14.5546 4.92907 14.3133 5.33337C14.9167 5.72733 15.4129 6.26491 15.7573 6.89788C16.1017 7.53086 16.2836 8.23943 16.2867 8.96004Z" fill="white" fill-opacity="0.7"/>
<path d="M11.9133 11.9468C13.5591 11.9468 14.8933 10.6126 14.8933 8.96682C14.8933 7.32101 13.5591 5.98682 11.9133 5.98682C10.2675 5.98682 8.93333 7.32101 8.93333 8.96682C8.93333 10.6126 10.2675 11.9468 11.9133 11.9468Z" fill="white" fill-opacity="0.7"/>
<path d="M12.0733 13.5333C11.2027 13.4982 10.3339 13.6395 9.51936 13.9489C8.70477 14.2582 7.96118 14.7291 7.33333 15.3333L7.16666 15.52V19.74C7.16927 19.8774 7.19892 20.013 7.25394 20.139C7.30896 20.265 7.38826 20.3789 7.48731 20.4743C7.58637 20.5696 7.70323 20.6445 7.83124 20.6947C7.95924 20.7448 8.09587 20.7693 8.23333 20.7667H15.8933C16.0308 20.7693 16.1674 20.7448 16.2954 20.6947C16.4234 20.6445 16.5403 20.5696 16.6393 20.4743C16.7384 20.3789 16.8177 20.265 16.8727 20.139C16.9277 20.013 16.9574 19.8774 16.96 19.74V15.5333L16.8 15.3333C16.1762 14.7273 15.4352 14.255 14.6224 13.9455C13.8097 13.636 12.9422 13.4957 12.0733 13.5333Z" fill="white" fill-opacity="0.7"/>
</g>
<defs>
<clipPath id="clip0_4003_5274">
<rect width="24" height="24" fill="white"/>
</clipPath>
</defs>
</svg>
