<svg width="24" height="23" viewBox="0 0 24 23" fill="none" xmlns="http://www.w3.org/2000/svg">
<path d="M7.104 17.176L2.688 12.76L7.104 8.344L5.76 7L0 12.76L5.76 18.52L7.104 17.176ZM16.896 17.176L21.312 12.76L16.896 8.344L18.24 7L24 12.76L18.24 18.52L16.896 17.176Z" fill="white" fill-opacity="0.7"/>
<path d="M8.79688 9.66016H10.2148V16.5508C10.2148 16.9844 10.1406 17.3496 9.99219 17.6465C9.84375 17.9473 9.625 18.1738 9.33594 18.3262C9.04688 18.4824 8.69336 18.5605 8.27539 18.5605C8.15039 18.5605 8.02148 18.5508 7.88867 18.5312C7.75195 18.5156 7.62305 18.4922 7.50195 18.4609L7.50781 17.3594C7.58984 17.375 7.67773 17.3867 7.77148 17.3945C7.86133 17.4062 7.94727 17.4121 8.0293 17.4121C8.19727 17.4121 8.33789 17.3828 8.45117 17.3242C8.56445 17.2656 8.65039 17.1738 8.70898 17.0488C8.76758 16.9238 8.79688 16.7578 8.79688 16.5508V9.66016ZM8.67383 7.99609C8.67383 7.78125 8.74609 7.60352 8.89062 7.46289C9.03516 7.31836 9.23242 7.24609 9.48242 7.24609C9.73633 7.24609 9.93359 7.31836 10.0742 7.46289C10.2188 7.60352 10.291 7.78125 10.291 7.99609C10.291 8.20703 10.2188 8.38281 10.0742 8.52344C9.93359 8.66406 9.73633 8.73438 9.48242 8.73438C9.23242 8.73438 9.03516 8.66406 8.89062 8.52344C8.74609 8.38281 8.67383 8.20703 8.67383 7.99609ZM15.2949 14.2832C15.2949 14.1426 15.2598 14.0156 15.1895 13.9023C15.1191 13.7852 14.9844 13.6797 14.7852 13.5859C14.5898 13.4922 14.3008 13.4062 13.918 13.3281C13.582 13.2539 13.2734 13.166 12.9922 13.0645C12.7148 12.959 12.4766 12.832 12.2773 12.6836C12.0781 12.5352 11.9238 12.3594 11.8145 12.1562C11.7051 11.9531 11.6504 11.7188 11.6504 11.4531C11.6504 11.1953 11.707 10.9512 11.8203 10.7207C11.9336 10.4902 12.0957 10.2871 12.3066 10.1113C12.5176 9.93555 12.7734 9.79688 13.0742 9.69531C13.3789 9.59375 13.7188 9.54297 14.0938 9.54297C14.625 9.54297 15.0801 9.63281 15.459 9.8125C15.8418 9.98828 16.1348 10.2285 16.3379 10.5332C16.541 10.834 16.6426 11.1738 16.6426 11.5527H15.2305C15.2305 11.3848 15.1875 11.2285 15.1016 11.084C15.0195 10.9355 14.8945 10.8164 14.7266 10.7266C14.5586 10.6328 14.3477 10.5859 14.0938 10.5859C13.8516 10.5859 13.6504 10.625 13.4902 10.7031C13.334 10.7773 13.2168 10.875 13.1387 10.9961C13.0645 11.1172 13.0273 11.25 13.0273 11.3945C13.0273 11.5 13.0469 11.5957 13.0859 11.6816C13.1289 11.7637 13.1992 11.8398 13.2969 11.9102C13.3945 11.9766 13.5273 12.0391 13.6953 12.0977C13.8672 12.1562 14.082 12.2129 14.3398 12.2676C14.8242 12.3691 15.2402 12.5 15.5879 12.6602C15.9395 12.8164 16.209 13.0195 16.3965 13.2695C16.584 13.5156 16.6777 13.8281 16.6777 14.207C16.6777 14.4883 16.6172 14.7461 16.4961 14.9805C16.3789 15.2109 16.207 15.4121 15.9805 15.584C15.7539 15.752 15.4824 15.8828 15.166 15.9766C14.8535 16.0703 14.502 16.1172 14.1113 16.1172C13.5371 16.1172 13.0508 16.0156 12.6523 15.8125C12.2539 15.6055 11.9512 15.3418 11.7441 15.0215C11.541 14.6973 11.4395 14.3613 11.4395 14.0137H12.8047C12.8203 14.2754 12.8926 14.4844 13.0215 14.6406C13.1543 14.793 13.3184 14.9043 13.5137 14.9746C13.7129 15.041 13.918 15.0742 14.1289 15.0742C14.3828 15.0742 14.5957 15.041 14.7676 14.9746C14.9395 14.9043 15.0703 14.8105 15.1602 14.6934C15.25 14.5723 15.2949 14.4355 15.2949 14.2832Z" fill="white" fill-opacity="0.7"/>
</svg>
