<svg width="24" height="9" viewBox="0 0 24 9" fill="none" xmlns="http://www.w3.org/2000/svg">
<path d="M3.64746 5.86621V0.890625H4.86816V5.86621C4.86816 6.33822 4.76725 6.74023 4.56543 7.07227C4.36361 7.4043 4.08854 7.6582 3.74023 7.83398C3.39193 8.00977 2.99642 8.09766 2.55371 8.09766C2.10124 8.09766 1.69922 8.02116 1.34766 7.86816C0.999349 7.71517 0.725911 7.48079 0.527344 7.16504C0.328776 6.84928 0.229492 6.44889 0.229492 5.96387H1.45996C1.45996 6.24382 1.50391 6.47005 1.5918 6.64258C1.68294 6.81185 1.8099 6.93555 1.97266 7.01367C2.13867 7.08854 2.33236 7.12598 2.55371 7.12598C2.7653 7.12598 2.95247 7.07878 3.11523 6.98438C3.28125 6.88672 3.41146 6.74512 3.50586 6.55957C3.60026 6.37077 3.64746 6.13965 3.64746 5.86621ZM9.41953 6.16895C9.41953 6.02246 9.39674 5.89225 9.35117 5.77832C9.30885 5.66439 9.23236 5.56022 9.12168 5.46582C9.011 5.37142 8.85475 5.28027 8.65293 5.19238C8.45436 5.10124 8.20046 5.00846 7.89121 4.91406C7.55267 4.8099 7.24017 4.69434 6.95371 4.56738C6.67051 4.43717 6.42311 4.28743 6.21152 4.11816C5.99993 3.94564 5.83555 3.7487 5.71836 3.52734C5.60117 3.30273 5.54258 3.04395 5.54258 2.75098C5.54258 2.46126 5.6028 2.19759 5.72324 1.95996C5.84694 1.72233 6.02109 1.51725 6.2457 1.34473C6.47357 1.16895 6.74212 1.03385 7.05137 0.939453C7.36061 0.841797 7.70241 0.792969 8.07676 0.792969C8.6041 0.792969 9.0582 0.890625 9.43906 1.08594C9.82318 1.28125 10.1178 1.54329 10.3229 1.87207C10.5312 2.20085 10.6354 2.5638 10.6354 2.96094H9.41953C9.41953 2.72656 9.36908 2.51986 9.26816 2.34082C9.17051 2.15853 9.02077 2.0153 8.81895 1.91113C8.62038 1.80697 8.3681 1.75488 8.06211 1.75488C7.7724 1.75488 7.53151 1.79883 7.33945 1.88672C7.1474 1.97461 7.00417 2.09342 6.90977 2.24316C6.81536 2.3929 6.76816 2.56217 6.76816 2.75098C6.76816 2.88444 6.79909 3.00651 6.86094 3.11719C6.92279 3.22461 7.01719 3.32552 7.14414 3.41992C7.27109 3.51107 7.4306 3.59733 7.62266 3.67871C7.81471 3.76009 8.04095 3.83822 8.30137 3.91309C8.69525 4.03027 9.03867 4.16048 9.33164 4.30371C9.62461 4.44368 9.86875 4.60319 10.0641 4.78223C10.2594 4.96126 10.4059 5.16471 10.5035 5.39258C10.6012 5.61719 10.65 5.87272 10.65 6.15918C10.65 6.45866 10.5898 6.72884 10.4693 6.96973C10.3489 7.20736 10.1764 7.41081 9.95176 7.58008C9.7304 7.74609 9.46348 7.87467 9.15098 7.96582C8.84173 8.05371 8.49668 8.09766 8.11582 8.09766C7.77402 8.09766 7.43711 8.05208 7.10508 7.96094C6.7763 7.86979 6.47682 7.73145 6.20664 7.5459C5.93646 7.3571 5.72161 7.12272 5.56211 6.84277C5.4026 6.55957 5.32285 6.22917 5.32285 5.85156H6.54844C6.54844 6.08268 6.5875 6.27962 6.66563 6.44238C6.74701 6.60514 6.85931 6.73861 7.00254 6.84277C7.14577 6.94368 7.31178 7.01855 7.50059 7.06738C7.69264 7.11621 7.89772 7.14062 8.11582 7.14062C8.40228 7.14062 8.64154 7.09993 8.83359 7.01855C9.02891 6.93717 9.17539 6.82324 9.27305 6.67676C9.3707 6.53027 9.41953 6.361 9.41953 6.16895ZM16.8029 4.25V4.64062C16.8029 5.17773 16.7329 5.65951 16.593 6.08594C16.453 6.51237 16.2528 6.87533 15.9924 7.1748C15.7352 7.47428 15.426 7.70378 15.0646 7.86328C14.7033 8.01953 14.3029 8.09766 13.8635 8.09766C13.4273 8.09766 13.0285 8.01953 12.6672 7.86328C12.3091 7.70378 11.9982 7.47428 11.7346 7.1748C11.4709 6.87533 11.2658 6.51237 11.1193 6.08594C10.9761 5.65951 10.9045 5.17773 10.9045 4.64062V4.25C10.9045 3.71289 10.9761 3.23275 11.1193 2.80957C11.2626 2.38314 11.4644 2.02018 11.7248 1.7207C11.9885 1.41797 12.2993 1.18848 12.6574 1.03223C13.0188 0.872721 13.4175 0.792969 13.8537 0.792969C14.2932 0.792969 14.6936 0.872721 15.0549 1.03223C15.4162 1.18848 15.7271 1.41797 15.9875 1.7207C16.2479 2.02018 16.4481 2.38314 16.5881 2.80957C16.7313 3.23275 16.8029 3.71289 16.8029 4.25ZM15.5773 4.64062V4.24023C15.5773 3.8431 15.5383 3.49316 15.4602 3.19043C15.3853 2.88444 15.273 2.62891 15.1232 2.42383C14.9768 2.21549 14.7961 2.05924 14.5813 1.95508C14.3664 1.84766 14.1239 1.79395 13.8537 1.79395C13.5835 1.79395 13.3426 1.84766 13.1311 1.95508C12.9195 2.05924 12.7388 2.21549 12.5891 2.42383C12.4426 2.62891 12.3303 2.88444 12.2521 3.19043C12.174 3.49316 12.135 3.8431 12.135 4.24023V4.64062C12.135 5.03776 12.174 5.38932 12.2521 5.69531C12.3303 6.0013 12.4442 6.26009 12.5939 6.47168C12.7469 6.68001 12.9292 6.83789 13.1408 6.94531C13.3524 7.04948 13.5933 7.10156 13.8635 7.10156C14.1369 7.10156 14.3794 7.04948 14.591 6.94531C14.8026 6.83789 14.9816 6.68001 15.1281 6.47168C15.2746 6.26009 15.3853 6.0013 15.4602 5.69531C15.5383 5.38932 15.5773 5.03776 15.5773 4.64062ZM23.0682 0.890625V8H21.8426L18.6541 2.90723V8H17.4285V0.890625H18.6541L21.8523 5.99316V0.890625H23.0682Z" fill="white" fill-opacity="0.7"/>
</svg>
