<svg width="256" height="256" viewBox="0 0 256 256" fill="none" xmlns="http://www.w3.org/2000/svg">
<g clip-path="url(#clip0_1_7)">
<path fill-rule="evenodd" clip-rule="evenodd" d="M142.276 0H109.434C107.127 0 105.114 1.5519 104.506 3.77488L58.3896 175.721L53.0838 195.161C52.6433 196.776 53.8597 198.37 55.5374 198.37H88.3789C90.6858 198.37 92.6991 196.818 93.3072 194.595L144.73 3.20865C145.17 1.59384 143.954 0 142.276 0ZM183.087 114.84H150.266C147.959 114.84 145.946 116.392 145.338 118.615L114.572 233.33L109.288 252.77C108.847 254.385 110.064 255.979 111.741 255.979H144.583C146.89 255.979 148.903 254.427 149.511 252.204L185.561 118.028C186.002 116.413 184.785 114.819 183.108 114.819L183.087 114.84ZM165.617 57.6299H198.459H198.48C200.158 57.6299 201.374 59.2237 200.933 60.8385L193.845 87.1788C193.237 89.4018 191.224 90.9537 188.917 90.9537H156.075C154.398 90.9537 153.181 89.3599 153.622 87.7451L160.689 61.4048C161.297 59.1818 163.31 57.6299 165.617 57.6299Z" fill="url(#paint0_linear_1_7)"/>
</g>
<defs>
<linearGradient id="paint0_linear_1_7" x1="105.5" y1="-2.5" x2="164.5" y2="354.5" gradientUnits="userSpaceOnUse">
<stop stop-color="#616FFF"/>
<stop offset="1" stop-color="#C935FD"/>
</linearGradient>
<clipPath id="clip0_1_7">
<rect width="148.017" height="256" fill="white" transform="translate(53)"/>
</clipPath>
</defs>
</svg>
