<svg width="32" height="34" viewBox="0 0 32 34" fill="none" xmlns="http://www.w3.org/2000/svg">
    <mask id="path-1-outside-1_36_87" maskUnits="userSpaceOnUse" x="4.62305" y="0" width="22" height="34" fill="black">
        <rect fill="white" x="4.62305" width="22" height="34"/>
        <path fill-rule="evenodd" clip-rule="evenodd" d="M17.7834 1H13.6782C13.3899 1 13.1382 1.19399 13.0622 1.47186L7.29763 22.9651L6.6344 25.3952C6.57935 25.597 6.73139 25.7963 6.94111 25.7963H11.0463C11.3347 25.7963 11.5863 25.6023 11.6623 25.3244L18.0901 1.40108C18.1452 1.19923 17.9931 1 17.7834 1ZM22.8847 15.355H18.7821C18.4937 15.355 18.2421 15.549 18.1661 15.8269L14.3204 30.1662L13.6598 32.5963C13.6047 32.7981 13.7568 32.9973 13.9665 32.9973H18.0717C18.36 32.9973 18.6117 32.8033 18.6877 32.5255L23.194 15.7535C23.249 15.5516 23.097 15.3524 22.8873 15.3524L22.8847 15.355ZM20.7013 8.20386H24.8064H24.8091C25.0188 8.20386 25.1708 8.40309 25.1158 8.60494L24.2297 11.8975C24.1537 12.1753 23.902 12.3693 23.6137 12.3693H19.5085C19.2988 12.3693 19.1467 12.1701 19.2018 11.9683L20.0852 8.67572C20.1612 8.39784 20.4129 8.20386 20.7013 8.20386Z"/>
    </mask>
    <path fill-rule="evenodd" clip-rule="evenodd" d="M17.7834 1H13.6782C13.3899 1 13.1382 1.19399 13.0622 1.47186L7.29763 22.9651L6.6344 25.3952C6.57935 25.597 6.73139 25.7963 6.94111 25.7963H11.0463C11.3347 25.7963 11.5863 25.6023 11.6623 25.3244L18.0901 1.40108C18.1452 1.19923 17.9931 1 17.7834 1ZM22.8847 15.355H18.7821C18.4937 15.355 18.2421 15.549 18.1661 15.8269L14.3204 30.1662L13.6598 32.5963C13.6047 32.7981 13.7568 32.9973 13.9665 32.9973H18.0717C18.36 32.9973 18.6117 32.8033 18.6877 32.5255L23.194 15.7535C23.249 15.5516 23.097 15.3524 22.8873 15.3524L22.8847 15.355ZM20.7013 8.20386H24.8064H24.8091C25.0188 8.20386 25.1708 8.40309 25.1158 8.60494L24.2297 11.8975C24.1537 12.1753 23.902 12.3693 23.6137 12.3693H19.5085C19.2988 12.3693 19.1467 12.1701 19.2018 11.9683L20.0852 8.67572C20.1612 8.39784 20.4129 8.20386 20.7013 8.20386Z" fill="white"/>
    <path d="M13.0622 1.47186L12.0976 1.20797L12.0963 1.21281L13.0622 1.47186ZM7.29763 22.9651L8.26235 23.2284L8.26349 23.2242L7.29763 22.9651ZM6.6344 25.3952L5.66969 25.1319L5.66964 25.1321L6.6344 25.3952ZM11.6623 25.3244L12.6269 25.5883L12.6281 25.5839L11.6623 25.3244ZM18.0901 1.40108L17.1254 1.13796L17.1244 1.1416L18.0901 1.40108ZM22.8847 15.355V16.355H23.2987L23.5915 16.0624L22.8847 15.355ZM18.1661 15.8269L17.2015 15.563L17.2002 15.5678L18.1661 15.8269ZM14.3204 30.1662L15.2854 30.4285L15.2863 30.4252L14.3204 30.1662ZM13.6598 32.5963L14.6246 32.8594L14.6248 32.8586L13.6598 32.5963ZM18.6877 32.5255L19.6523 32.7894L19.6535 32.785L18.6877 32.5255ZM23.194 15.7535L22.2292 15.4903L22.2282 15.494L23.194 15.7535ZM22.8873 15.3524V14.3524H22.4733L22.1804 14.645L22.8873 15.3524ZM25.1158 8.60494L24.151 8.34182L24.1501 8.34508L25.1158 8.60494ZM24.2297 11.8975L25.1943 12.1614L25.1954 12.1573L24.2297 11.8975ZM19.2018 11.9683L20.1666 12.2314L20.1676 12.2274L19.2018 11.9683ZM20.0852 8.67572L19.1206 8.41183L19.1194 8.41657L20.0852 8.67572ZM13.6782 2H17.7834V0H13.6782V2ZM14.0267 1.73575C13.985 1.88825 13.845 2 13.6782 2V0C12.9348 0 12.2914 0.49972 12.0976 1.20797L14.0267 1.73575ZM8.26349 23.2242L14.0281 1.73091L12.0963 1.21281L6.33176 22.7061L8.26349 23.2242ZM7.59912 25.6585L8.26234 23.2284L6.33291 22.7018L5.66969 25.1319L7.59912 25.6585ZM6.94111 24.7963C7.39022 24.7963 7.71775 25.2235 7.59916 25.6583L5.66964 25.1321C5.44095 25.9706 6.07257 26.7963 6.94111 26.7963V24.7963ZM11.0463 24.7963H6.94111V26.7963H11.0463V24.7963ZM10.6978 25.0605C10.7395 24.908 10.8796 24.7963 11.0463 24.7963V26.7963C11.7897 26.7963 12.4331 26.2966 12.6269 25.5883L10.6978 25.0605ZM17.1244 1.1416L10.6966 25.0649L12.6281 25.5839L19.0559 1.66056L17.1244 1.1416ZM17.7834 2C17.3343 2 17.0068 1.57278 17.1254 1.13797L19.0549 1.6642C19.2836 0.825675 18.652 0 17.7834 0V2ZM18.7821 16.355H22.8847V14.355H18.7821V16.355ZM19.1306 16.0907C19.0889 16.2432 18.9488 16.355 18.7821 16.355V14.355C18.0386 14.355 17.3953 14.8547 17.2015 15.563L19.1306 16.0907ZM15.2863 30.4252L19.1319 16.0859L17.2002 15.5678L13.3545 29.9071L15.2863 30.4252ZM14.6248 32.8586L15.2854 30.4285L13.3554 29.9038L12.6948 32.3339L14.6248 32.8586ZM13.9665 31.9973C14.4156 31.9973 14.7431 32.4246 14.6246 32.8594L12.695 32.3331C12.4663 33.1717 13.098 33.9973 13.9665 33.9973V31.9973ZM18.0717 31.9973H13.9665V33.9973H18.0717V31.9973ZM17.7232 32.2616C17.7649 32.1091 17.905 31.9973 18.0717 31.9973V33.9973C18.8151 33.9973 19.4585 33.4976 19.6523 32.7894L17.7232 32.2616ZM22.2282 15.494L17.722 32.266L19.6535 32.785L24.1597 16.0129L22.2282 15.494ZM22.8873 16.3524C22.4382 16.3524 22.1106 15.9252 22.2292 15.4903L24.1588 16.0166C24.3874 15.1781 23.7558 14.3524 22.8873 14.3524V16.3524ZM23.5915 16.0624L23.5941 16.0597L22.1804 14.645L22.1778 14.6476L23.5915 16.0624ZM24.8064 7.20386H20.7013V9.20386H24.8064V7.20386ZM24.8091 7.20386H24.8064V9.20386H24.8091V7.20386ZM26.0805 8.86805C26.3092 8.02954 25.6776 7.20386 24.8091 7.20386V9.20386C24.3599 9.20386 24.0324 8.77664 24.151 8.34182L26.0805 8.86805ZM25.1954 12.1573L26.0814 8.8648L24.1501 8.34508L23.2641 11.6376L25.1954 12.1573ZM23.6137 13.3693C24.3571 13.3693 25.0005 12.8696 25.1943 12.1614L23.2652 11.6336C23.3069 11.4811 23.4469 11.3693 23.6137 11.3693V13.3693ZM19.5085 13.3693H23.6137V11.3693H19.5085V13.3693ZM18.237 11.7051C18.0083 12.5437 18.64 13.3693 19.5085 13.3693V11.3693C19.9576 11.3693 20.2851 11.7966 20.1665 12.2314L18.237 11.7051ZM19.1194 8.41657L18.2359 11.7091L20.1676 12.2274L21.051 8.93486L19.1194 8.41657ZM20.7013 7.20386C19.9578 7.20386 19.3144 7.70358 19.1207 8.41183L21.0498 8.93961C21.008 9.09211 20.868 9.20386 20.7013 9.20386V7.20386Z" fill="black" fill-opacity="0.1" mask="url(#path-1-outside-1_36_87)"/>
</svg>
