<svg width="148" height="148" viewBox="0 0 148 148" fill="none" xmlns="http://www.w3.org/2000/svg">
<circle cx="74" cy="74" r="58" fill="#F498C4"/>
<rect x="16" y="16" width="58" height="58" fill="#FF5319"/>
<path d="M110 133.069C104.927 134.133 99.2309 135.462 93.3568 134.842C90.1528 134.576 87.0378 133.601 84.2788 132.272C81.1637 130.677 78.6717 128.372 76.9807 125.625C73.3316 119.599 73.4206 111.712 77.4257 102.585C78.1377 100.901 78.9387 99.306 79.6507 97.7108C81.6977 93.4572 83.6557 89.4694 84.1007 85.3044C84.3677 82.8231 83.8338 79.6329 82.1427 78.3036C80.6297 77.063 77.3367 76.8857 73.5097 77.7719C67.5466 79.2784 62.1175 82.6459 56.3325 86.1906C55.0865 86.9881 53.8405 87.6971 52.5945 88.4946C49.7464 90.267 45.2964 92.6596 40.4903 94.5206C37.6423 95.584 34.9723 96.293 32.6583 96.6474C29.5432 97.0905 26.7842 96.9133 24.3812 96.1157C20.9102 94.9637 18.3291 92.3938 16.9051 88.8491C15.7481 86.0133 15.6591 82.5573 16.5491 79.0126C17.6171 74.9362 19.6641 70.9484 22.9572 66.872C25.8052 63.3273 29.2762 60.137 31.9463 57.7444C34.1713 55.7062 36.5743 53.9338 38.8883 52.1615C41.6474 50.0346 44.2284 48.0851 46.5424 45.8696C49.5684 43.0339 53.5735 38.7802 54.0185 34.0835C54.4635 29.2982 50.5474 25.3104 46.4534 23.538C42.9824 21.9429 38.7103 21.4112 33.0143 21.6771C24.9152 22.1201 16.5491 24.247 7.47104 28.2347L3.99999 20.3478C14.0571 15.9169 23.4912 13.5243 32.5693 13.0812C39.5113 12.7267 45.2074 13.5243 49.9244 15.6511C53.6625 17.2462 56.8665 19.9047 59.1805 23.0063C61.4055 26.1079 62.6516 29.564 62.6516 33.1087C62.6516 33.729 62.6515 34.2607 62.5625 34.8811C61.8505 42.5022 56.4215 48.3509 52.3274 52.1615C49.6574 54.6428 46.8094 56.8582 44.0504 58.985C41.7364 60.7574 39.6003 62.4411 37.5533 64.2134C35.1503 66.3403 32.0353 69.176 29.5432 72.2776C27.0512 75.3792 25.4492 78.3036 24.7372 81.1394C24.3812 82.38 24.1142 84.241 24.7372 85.7475C25.3602 87.254 26.1612 87.6971 26.9622 87.9629C30.7893 89.2036 38.9773 86.545 47.8774 81.1394C49.1234 80.4304 50.2804 79.6329 51.5264 78.9239C57.5785 75.1134 63.8976 71.2142 71.1956 69.4419C75.1117 68.4671 82.3207 67.4923 87.3938 71.6573C89.5298 73.341 91.0428 75.8223 91.8438 78.7467C92.4668 81.0508 92.7338 83.6207 92.4668 86.1906C91.8438 91.8621 89.5298 96.736 87.2158 101.433C86.5038 103.028 85.7028 104.446 85.0798 105.952C83.7447 108.965 83.0327 111.801 82.7657 114.282C82.4987 116.941 82.9437 119.245 84.1007 121.017C85.7918 123.853 89.5298 125.714 93.8908 126.157C98.4299 126.6 103.236 125.537 107.864 124.562L110 133.069Z" fill="#FFC70A"/>
<path d="M30.25 55H117.75V112H30.25V55Z" fill="#008CFF"/>
<path d="M24 36H124V55H24V36Z" fill="#0068FF"/>
<path d="M55 65H93V74H55V65Z" fill="#17273F"/>
</svg>
