<svg width="148" height="148" viewBox="0 0 148 148" fill="none" xmlns="http://www.w3.org/2000/svg">
<ellipse cx="113.321" cy="37.7255" rx="13.7627" ry="13.7255" fill="#0068FF"/>
<ellipse cx="74.982" cy="75.9606" rx="48.1695" ry="48.0392" fill="#FA5420"/>
<path d="M94.69 108.153C90.8328 107.803 87.4665 106.476 85.0119 104.24C80.8741 100.466 78.5598 94.3871 78.0689 86.1417C77.7883 81.3202 78.3494 76.6385 78.9105 72.0965C79.4014 67.834 79.8923 63.851 79.752 59.7981C79.6819 57.8416 79.191 55.1164 77.5078 53.2996C75.7545 51.4828 71.8272 50.2949 67.3388 51.9719C62.6399 53.7188 58.9931 57.4223 55.1359 61.3354C53.7332 62.8028 52.2605 64.2703 50.7176 65.6678C45.3876 70.4893 39.9875 73.0049 34.6575 73.1446C31.5016 73.2145 28.6963 72.7253 26.2417 71.6772C23.8572 70.629 21.8234 69.0219 20.2104 66.9954C17.335 63.2221 15.9324 57.9115 16.0025 51.2033C16.1428 44.6349 17.6857 38.1363 18.948 33.804L26.2417 35.9701C24.6287 41.4904 23.717 46.801 23.6468 51.343C23.5767 56.2344 24.4884 60.0776 26.3118 62.4534C28.0651 64.6895 30.7301 65.7377 34.5874 65.6678C38.0238 65.5979 41.8109 63.7112 45.7383 60.1475C47.1409 58.8897 48.4734 57.5621 49.876 56.0947C54.154 51.7623 58.5723 47.3601 64.814 44.9842C67.8297 43.8662 71.196 43.447 74.2818 43.7964C77.8585 44.2855 80.9443 45.7529 83.1885 48.1287C85.7833 50.8539 87.2561 54.767 87.4665 59.4488C87.6769 64.1305 87.1158 68.6026 86.6249 73.0049C86.0639 77.4071 85.573 81.5298 85.8535 85.7224C86.2041 91.8716 87.747 96.2738 90.3419 98.6497C91.9549 100.117 94.3394 100.536 96.0225 100.676C98.3369 100.816 100.932 100.397 103.176 99.6279C111.241 96.763 117.483 92.5005 125.408 87.12C126.179 86.6308 126.951 86.0718 127.722 85.5827L132 91.8017C131.229 92.3607 130.457 92.8499 129.686 93.339C121.691 98.7894 114.748 103.541 105.771 106.755C102.545 107.873 98.9681 108.432 95.6719 108.293C95.1108 108.223 94.9004 108.223 94.69 108.153Z" fill="#FFC70A"/>
<path d="M46 115V35H92.8665V45.1587H103L102.98 115H46Z" fill="#F499C4"/>
<path d="M92.8672 35L97.9338 40.0794L103 45.1587H92.8672V35Z" fill="#18273F"/>
<rect width="7" height="34" transform="matrix(-0.866025 -0.5 -0.5 0.866025 114.062 79.5)" fill="#18273F"/>
<path d="M96.0625 110.677L90.0003 107.177L90.0314 114.123L96.0625 110.677Z" fill="#18273F"/>
</svg>
