<svg width="148" height="148" viewBox="0 0 148 148" fill="none" xmlns="http://www.w3.org/2000/svg">
    <path d="M6 56H122V131H6V56Z" fill="#5C6169"/>
    <path d="M6 56H122L66 96L6 56Z" fill="#F4F6EF"/>
    <path d="M122 56H6L66 16L122 56Z" fill="#F4F6EF"/>
    <path d="M142 56C142 67.0457 133.046 76 122 76C110.954 76 102 67.0457 102 56C102 44.9543 110.954 36 122 36C133.046 36 142 44.9543 142 56Z" fill="#1D813A"/>
    <path d="M122 65.2344C117.734 65.2344 114.969 61.625 114.969 56.0938C114.969 50.5625 117.734 46.9531 122 46.9531C126.266 46.9531 129.031 50.5625 129.031 56.0938C129.031 61.625 126.266 65.2344 122 65.2344ZM122 63.125C124.812 63.125 126.641 60.3594 126.641 56.0938C126.641 51.8281 124.812 49.0625 122 49.0625C119.188 49.0625 117.359 51.8281 117.359 56.0938C117.359 60.3594 119.188 63.125 122 63.125Z" fill="white"/>
    <path d="M122 131H6L66 79L122 131Z" fill="#888B91"/>
</svg>
