<svg width="148" height="148" viewBox="0 0 148 148" fill="none" xmlns="http://www.w3.org/2000/svg">
<path d="M109.948 42.105H91.9336V60.2099H109.948V42.105Z" fill="#FF5319"/>
<path d="M127.964 24H109.949V42.1049H127.964V24Z" fill="#FFC70A"/>
<path d="M91.9325 24H73.918V42.1049H91.9325V24Z" fill="#FF5319"/>
<path d="M102.035 124H105.823L104.224 104.203L118.029 116.385L130.235 112.748L126.952 100.311L106.076 100.142L132.003 92.1892V79.668L120.639 76.7915L104.813 95.5733L113.568 70.2772L102.035 60.2095V124Z" fill="#0068FF"/>
<path d="M99.5943 42.105H42.1836V119.685H99.5943V42.105Z" fill="#F498C4"/>
<path d="M99.5945 44.2197H44.625V121.8H99.5945V44.2197Z" fill="white"/>
<path d="M47.0664 46.4194V124H102.036V56.4871L91.9343 46.4194H47.0664Z" fill="#F498C4"/>
<path d="M102.035 56.4871H91.9336V46.4194L102.035 56.4871Z" fill="#17273F"/>
<path d="M87.9784 61.3945H61.125V63.002H87.9784V61.3945Z" fill="#17273F"/>
<path d="M92.0185 73.9155H57.168V75.523H92.0185V73.9155Z" fill="#17273F"/>
<path d="M92.0185 80.0913H57.168V81.6987H92.0185V80.0913Z" fill="#17273F"/>
<path d="M92.0185 86.2676H57.168V87.875H92.0185V86.2676Z" fill="#17273F"/>
<path d="M92.0185 92.4434H57.168V94.0508H92.0185V92.4434Z" fill="#17273F"/>
<mask id="mask0_766_15113" style="mask-type:luminance" maskUnits="userSpaceOnUse" x="16" y="24" width="116" height="100">
<path d="M132 24H16V124H132V24Z" fill="white"/>
</mask>
<g mask="url(#mask0_766_15113)">
<path d="M51.9466 87.875C51.9466 97.8581 43.8653 105.895 34.0163 105.895C24.083 105.895 16.0859 97.7735 16.0859 87.875H51.9466Z" fill="#0068FF"/>
</g>
<mask id="mask1_766_15113" style="mask-type:luminance" maskUnits="userSpaceOnUse" x="16" y="24" width="116" height="100">
<path d="M132 24H16V124H132V24Z" fill="white"/>
</mask>
<g mask="url(#mask1_766_15113)">
<path d="M51.9448 124H16C16 122.139 16.2525 120.362 16.8418 118.585C19.1147 111.225 25.9332 105.895 34.0145 105.895C42.0958 105.895 48.9144 111.225 51.1872 118.585C51.6081 120.362 51.9448 122.139 51.9448 124Z" fill="#17273F"/>
</g>
</svg>
