<svg width="148" height="148" viewBox="0 0 148 148" fill="none" xmlns="http://www.w3.org/2000/svg">
<path d="M74 16H132V74H74V16Z" fill="#FFC70A"/>
<path d="M16 74C16 41.9675 41.9675 16 74 16V74H16Z" fill="#FF5319"/>
<path d="M16 74H74V132H16V74Z" fill="#F498C4"/>
<path d="M74 74H132C132 106.033 106.033 132 74 132V74Z" fill="#FF5319"/>
<path d="M48.7383 56.7251H99.2646V112H48.7383V56.7251Z" fill="#008CFF"/>
<path d="M42 45H106V56.725H42V45Z" fill="#0068FF"/>
<path d="M60.0195 104.415L60.0195 64.5943L65.1039 64.5943L65.1039 104.415L60.0195 104.415Z" fill="#17273F"/>
<path d="M71.4609 104.415L71.4609 64.5943L76.5453 64.5943L76.5453 104.415L71.4609 104.415Z" fill="#17273F"/>
<path d="M82.8984 104.415L82.8984 64.5943L87.9828 64.5943L87.9828 104.415L82.8984 104.415Z" fill="#17273F"/>
</svg>
