<svg width="38" height="24" viewBox="0 0 38 24" fill="none" xmlns="http://www.w3.org/2000/svg">
<g clip-path="url(#clip0)">
<path d="M34.1316 0H3.3573C3.22913 0 3.10073 0 2.97279 0.000747416C2.86464 0.00151748 2.75674 0.00271788 2.64884 0.00566224C2.41351 0.0120266 2.17618 0.0259104 1.9438 0.0676751C1.7077 0.110165 1.48801 0.17947 1.27368 0.288593C1.06298 0.395745 0.870077 0.535897 0.702908 0.703137C0.535665 0.870377 0.395513 1.06296 0.288384 1.27389C0.179238 1.48822 0.109887 1.70798 0.0676923 1.94426C0.0257034 2.1767 0.0117267 2.41399 0.00538502 2.64907C0.00248595 2.75697 0.00124252 2.86487 0.000538139 2.97274C-0.000209276 3.10096 3.98622e-05 3.22909 3.98622e-05 3.35753V20.6427C3.98622e-05 20.7712 -0.000209276 20.8991 0.000538139 21.0275C0.00124252 21.1354 0.00248595 21.2433 0.00538502 21.3512C0.0117267 21.5861 0.0257034 21.8234 0.0676923 22.0557C0.109887 22.2921 0.179238 22.5118 0.288384 22.7261C0.395513 22.9371 0.535665 23.1299 0.702908 23.2969C0.870077 23.4644 1.06298 23.6045 1.27368 23.7114C1.48801 23.8208 1.7077 23.8902 1.9438 23.9326C2.17618 23.9741 2.41351 23.9882 2.64884 23.9946C2.75674 23.9971 2.86464 23.9985 2.97279 23.999C3.10073 24 3.22913 24 3.3573 24H34.1316C34.2595 24 34.3879 24 34.5158 23.999C34.6237 23.9985 34.7316 23.9971 34.84 23.9946C35.0748 23.9882 35.3121 23.9741 35.5451 23.9326C35.7809 23.8902 36.0006 23.8208 36.2149 23.7114C36.4259 23.6045 36.6182 23.4644 36.7857 23.2969C36.9527 23.1299 37.0928 22.9371 37.2002 22.7261C37.3096 22.5118 37.3789 22.2921 37.4209 22.0557C37.4629 21.8234 37.4766 21.5861 37.4829 21.3512C37.4859 21.2433 37.4873 21.1354 37.4878 21.0275C37.4888 20.8991 37.4888 20.7712 37.4888 20.6427V3.35753C37.4888 3.22909 37.4888 3.10096 37.4878 2.97274C37.4873 2.86487 37.4859 2.75697 37.4829 2.64907C37.4766 2.41399 37.4629 2.1767 37.4209 1.94426C37.3789 1.70798 37.3096 1.48822 37.2002 1.27389C37.0928 1.06296 36.9527 0.870377 36.7857 0.703137C36.6182 0.535897 36.4259 0.395745 36.2149 0.288593C36.0006 0.17947 35.7809 0.110165 35.5451 0.0676751C35.3121 0.0259104 35.0748 0.0120266 34.84 0.00566224C34.7316 0.00271788 34.6237 0.00151748 34.5158 0.000747416C34.3879 0 34.2595 0 34.1316 0Z" fill="black"/>
<path d="M34.1314 0.799988L34.51 0.800713C34.6125 0.801437 34.7151 0.802547 34.8182 0.805356C34.9976 0.810202 35.2074 0.819919 35.403 0.854979C35.573 0.885601 35.7156 0.932167 35.8525 1.00184C35.9876 1.07048 36.1114 1.16045 36.2194 1.26837C36.3279 1.37702 36.418 1.501 36.4876 1.63759C36.5568 1.77337 36.6031 1.91529 36.6335 2.08656C36.6685 2.28003 36.6782 2.49044 36.6831 2.67093C36.6859 2.7728 36.6872 2.87468 36.6877 2.97898C36.6887 3.10511 36.6887 3.23117 36.6887 3.35755V20.6427C36.6887 20.7691 36.6887 20.895 36.6877 21.0238C36.6872 21.1256 36.6859 21.2275 36.6831 21.3296C36.6782 21.5098 36.6685 21.7201 36.6331 21.9158C36.6031 22.0848 36.5569 22.2267 36.4872 22.3632C36.4178 22.4994 36.3279 22.6233 36.2199 22.7312C36.1112 22.8399 35.9878 22.9296 35.8511 22.9989C35.7153 23.0682 35.5729 23.1148 35.4046 23.1451C35.205 23.1806 34.9864 23.1904 34.8217 23.1949C34.7182 23.1972 34.6151 23.1986 34.5094 23.1991C34.3836 23.2001 34.2573 23.2001 34.1314 23.2001H3.35712C3.35545 23.2001 3.35382 23.2001 3.35212 23.2001C3.22768 23.2001 3.103 23.2001 2.9763 23.1991C2.873 23.1986 2.76993 23.1972 2.67027 23.195C2.50185 23.1904 2.28309 23.1807 2.08516 23.1453C1.91536 23.1148 1.77301 23.0682 1.63539 22.998C1.49998 22.9293 1.3767 22.8397 1.26796 22.7308C1.16006 22.6231 1.07039 22.4996 1.00106 22.3632C0.931667 22.2269 0.885237 22.0845 0.854708 21.9136C0.819419 21.7182 0.809725 21.5087 0.80488 21.3297C0.802115 21.2272 0.80096 21.1248 0.800303 21.0229L0.799805 20.7222L0.799827 20.6427V3.35755L0.799805 3.27815L0.80028 2.97803C0.80096 2.87554 0.802115 2.77308 0.80488 2.67068C0.809725 2.4915 0.819419 2.28195 0.855 2.08495C0.885259 1.91556 0.931667 1.77319 1.00143 1.63619C1.07021 1.50077 1.16004 1.37715 1.2685 1.26871C1.37654 1.16063 1.50022 1.07078 1.6365 1.00147C1.77265 0.932144 1.91527 0.885601 2.08507 0.855047C2.28071 0.819896 2.49069 0.810202 2.67052 0.805333C2.77303 0.802547 2.87554 0.801437 2.97728 0.800735L3.35712 0.799988H34.1314Z" fill="white"/>
<path d="M10.234 8.0722C10.555 7.67071 10.7728 7.13163 10.7153 6.58075C10.2455 6.60411 9.67205 6.89075 9.34008 7.29255C9.042 7.63664 8.77818 8.19829 8.84696 8.72607C9.37443 8.77183 9.90141 8.46242 10.234 8.0722Z" fill="black"/>
<path d="M10.7092 8.82911C9.94323 8.78348 9.29193 9.26386 8.92612 9.26386C8.56011 9.26386 7.99993 8.8521 7.39406 8.8632C6.60547 8.87478 5.87376 9.32065 5.47358 10.0298C4.6505 11.4484 5.25637 13.5528 6.05678 14.7082C6.44548 15.2798 6.91392 15.9092 7.53117 15.8866C8.11437 15.8637 8.34296 15.5089 9.05186 15.5089C9.76024 15.5089 9.96615 15.8866 10.5835 15.8751C11.2237 15.8637 11.624 15.3032 12.0126 14.7311C12.4586 14.0795 12.6411 13.4503 12.6526 13.4157C12.6411 13.4043 11.4181 12.9351 11.4067 11.5283C11.3952 10.3503 12.3669 9.78998 12.4127 9.75523C11.8639 8.94361 11.0065 8.8521 10.7092 8.82911Z" fill="black"/>
<path d="M17.3791 7.23496C19.044 7.23496 20.2033 8.3826 20.2033 10.0535C20.2033 11.7303 19.0201 12.8839 17.3373 12.8839H15.494V15.8154H14.1621V7.23495H17.3791V7.23496ZM15.494 11.766H17.0222C18.1817 11.766 18.8417 11.1417 18.8417 10.0594C18.8417 8.97729 18.1817 8.35886 17.0281 8.35886H15.494V11.766Z" fill="black"/>
<path d="M20.5513 14.0375C20.5513 12.9433 21.3897 12.2714 22.8764 12.1882L24.5888 12.0871V11.6055C24.5888 10.9098 24.119 10.4936 23.3342 10.4936C22.5908 10.4936 22.127 10.8503 22.0141 11.4093H20.8011C20.8724 10.2794 21.8356 9.44696 23.3817 9.44696C24.898 9.44696 25.8672 10.2497 25.8672 11.5044V15.8154H24.6363V14.7867H24.6067C24.244 15.4825 23.4531 15.9224 22.6325 15.9224C21.4076 15.9224 20.5513 15.1613 20.5513 14.0375ZM24.5888 13.4727V12.9791L23.0486 13.0742C22.2816 13.1278 21.8476 13.4667 21.8476 14.0019C21.8476 14.5488 22.2995 14.9057 22.9892 14.9057C23.8871 14.9057 24.5888 14.2872 24.5888 13.4727Z" fill="black"/>
<path d="M27.0291 18.1167V17.0761C27.1241 17.0998 27.3381 17.0998 27.4452 17.0998C28.0398 17.0998 28.3609 16.8501 28.5571 16.2079C28.5571 16.196 28.6701 15.8274 28.6701 15.8214L26.4106 9.55997H27.8019L29.3838 14.65H29.4074L30.9893 9.55997H32.345L30.002 16.1424C29.467 17.6588 28.8486 18.1464 27.5523 18.1464C27.4452 18.1464 27.1241 18.1345 27.0291 18.1167Z" fill="black"/>
</g>
<defs>
<clipPath id="clip0">
<rect width="37.4888" height="24" fill="white"/>
</clipPath>
</defs>
</svg>
