<svg width="24" height="24" viewBox="0 0 24 24" fill="none" xmlns="http://www.w3.org/2000/svg">
<path fill-rule="evenodd" clip-rule="evenodd" d="M3 6H9V9H3V6ZM1 3V6V20V21H2H8V19H3V16H10H11V15V11H14V9H11V6H17V8H19V6V1H18H1V2V3ZM9 11H3V14H9V11ZM15.7071 22.2929C15.3166 22.6834 14.6834 22.6834 14.2929 22.2929L10.7323 18.7323C10.3418 18.3418 10.3418 17.7086 10.7323 17.3181L17.3181 10.7323C17.7086 10.3418 18.3418 10.3418 18.7323 10.7323L22.2929 14.2929C22.6834 14.6834 22.6834 15.3166 22.2929 15.7071L15.7071 22.2929ZM15.0091 20.9943L11.9943 17.9795L13.896 16.0778L16.9108 19.0926L15.0091 20.9943Z" fill="black"/>
</svg>
