<svg width="38" height="24" viewBox="0 0 38 24" fill="none" xmlns="http://www.w3.org/2000/svg">
<g clip-path="url(#clip0)">
<path fill-rule="evenodd" clip-rule="evenodd" d="M34.1234 0.00790405H3.35648C3.22832 0.00790405 3.09993 0.00790405 2.972 0.00858294C2.86399 0.00948813 2.7562 0.0106196 2.6482 0.0135615C2.41293 0.0198978 2.17563 0.0337019 1.9433 0.0755667C1.70736 0.117884 1.48772 0.187131 1.27351 0.296206C1.0627 0.403244 0.87 0.543322 0.702664 0.710328C0.535555 0.877561 0.395392 1.06991 0.288288 1.28082C0.179146 1.4949 0.109857 1.71441 0.0677403 1.95043C0.0256234 2.18284 0.0118109 2.41977 0.00547067 2.65467C0.00252702 2.76261 0.00116841 2.87033 0.0004891 2.97805C-0.000190206 3.10613 3.62296e-05 3.23421 3.62296e-05 3.36252V20.633C3.62296e-05 20.7613 -0.000190206 20.8892 0.0004891 21.0175C0.00116841 21.1252 0.00252702 21.2332 0.00547067 21.3409C0.0118109 21.5755 0.0256234 21.8127 0.0677403 22.0449C0.109857 22.2809 0.179146 22.5004 0.288288 22.7147C0.395392 22.9254 0.535555 23.118 0.702664 23.285C0.87 23.4522 1.0627 23.5923 1.27351 23.6991C1.48772 23.8084 1.70736 23.8777 1.9433 23.9202C2.17563 23.9616 2.41293 23.9756 2.6482 23.982C2.7562 23.9845 2.86399 23.9861 2.972 23.9865C3.09993 23.9874 3.22832 23.9874 3.35648 23.9874H34.1234C34.2513 23.9874 34.3797 23.9874 34.5076 23.9865C34.6154 23.9861 34.7232 23.9845 34.8316 23.982C35.0665 23.9756 35.3038 23.9616 35.5365 23.9202C35.7723 23.8777 35.9919 23.8084 36.2063 23.6991C36.4171 23.5923 36.6094 23.4522 36.777 23.285C36.9438 23.118 37.084 22.9254 37.1913 22.7147C37.3007 22.5004 37.37 22.2809 37.4119 22.0449C37.454 21.8127 37.4676 21.5755 37.4739 21.3409C37.4769 21.2332 37.4782 21.1252 37.4789 21.0175C37.4798 20.8892 37.4798 20.7613 37.4798 20.633V3.36252C37.4798 3.23421 37.4798 3.10613 37.4789 2.97805C37.4782 2.87033 37.4769 2.76261 37.4739 2.65467C37.4676 2.41977 37.454 2.18284 37.4119 1.95043C37.37 1.71441 37.3007 1.4949 37.1913 1.28082C37.084 1.06991 36.9438 0.877561 36.777 0.710328C36.6094 0.543322 36.4171 0.403244 36.2063 0.296206C35.9919 0.187131 35.7723 0.117884 35.5365 0.0755667C35.3038 0.0337019 35.0665 0.0198978 34.8316 0.0135615C34.7232 0.0106196 34.6154 0.00948813 34.5076 0.00858294C34.3797 0.00790405 34.2513 0.00790405 34.1234 0.00790405Z" fill="black"/>
<path fill-rule="evenodd" clip-rule="evenodd" d="M34.1234 0.80722L34.502 0.807899C34.6043 0.808578 34.7069 0.80971 34.8099 0.812652C34.9892 0.817404 35.1992 0.827135 35.3948 0.862211C35.5646 0.892761 35.7073 0.939378 35.844 1.00885C35.9792 1.07742 36.1029 1.16748 36.2109 1.2752C36.3193 1.38382 36.4094 1.50761 36.479 1.64406C36.5483 1.77984 36.5944 1.9215 36.625 2.09258C36.6599 2.28607 36.6696 2.4963 36.6744 2.67666C36.6773 2.77826 36.6787 2.8801 36.6791 2.98442C36.68 3.11047 36.68 3.23629 36.68 3.36256V20.6331C36.68 20.7593 36.68 20.8852 36.6791 21.0137C36.6787 21.1155 36.6773 21.2174 36.6744 21.3194C36.6696 21.4993 36.6599 21.7095 36.6246 21.9051C36.5944 22.0739 36.5483 22.2155 36.4785 22.352C36.4092 22.4882 36.3193 22.6118 36.2113 22.7197C36.1026 22.8284 35.9794 22.918 35.8427 22.9872C35.7068 23.0565 35.5646 23.1031 35.3964 23.1332C35.1967 23.1687 34.9781 23.1787 34.8135 23.183C34.71 23.1855 34.607 23.1868 34.5013 23.1873C34.3756 23.1882 34.2493 23.1882 34.1234 23.1882H3.35648C3.3549 23.1882 3.35331 23.1882 3.3515 23.1882C3.22719 23.1882 3.10242 23.1882 2.97585 23.1873C2.87259 23.1868 2.76956 23.1855 2.66993 23.1832C2.50146 23.1787 2.28273 23.1687 2.08482 23.1334C1.915 23.1031 1.7728 23.0565 1.63512 22.9863C1.49972 22.9177 1.37653 22.8281 1.26785 22.7193C1.16006 22.6118 1.07039 22.4885 1.00111 22.352C0.93159 22.2158 0.885171 22.0737 0.854602 21.9028C0.819505 21.7075 0.809768 21.4984 0.804786 21.3194C0.802069 21.2171 0.800937 21.1146 0.800258 21.013L0.799805 20.7125V3.28336L0.800258 2.98351C0.800937 2.881 0.802069 2.77872 0.804786 2.67643C0.809768 2.4972 0.819505 2.28788 0.855055 2.091C0.885171 1.92196 0.93159 1.77962 1.00133 1.64271C1.07017 1.50738 1.16006 1.38382 1.2683 1.27565C1.37631 1.16748 1.50017 1.07787 1.63626 1.00862C1.77234 0.939151 1.915 0.892761 2.08482 0.862211C2.28046 0.827135 2.49037 0.817404 2.67016 0.812652C2.77251 0.80971 2.87508 0.808578 2.97675 0.807899L3.35648 0.80722H34.1234Z" fill="#FFFFFE"/>
<path d="M18.0449 12.5514V15.9691H16.9771V7.53248H19.8091C20.4922 7.51902 21.1555 7.7814 21.6396 8.2658C22.608 9.18078 22.6677 10.7214 21.759 11.7104C21.7192 11.7508 21.6794 11.7911 21.6396 11.8315C21.1422 12.3092 20.532 12.5514 19.8091 12.5514H18.0449ZM18.0449 8.56855V11.5153H19.8356C20.2336 11.5288 20.6182 11.3673 20.8902 11.078C21.4473 10.4927 21.434 9.5508 20.857 8.98567C20.5851 8.71656 20.2203 8.56855 19.8356 8.56855H18.0449Z" fill="black"/>
<path d="M24.8697 10.0083C25.659 10.0083 26.2824 10.2236 26.7401 10.6474C27.1977 11.0713 27.4232 11.6633 27.4232 12.4101V15.9691H26.4018V15.1685H26.3554C25.911 15.8278 25.3274 16.1575 24.5912 16.1575C23.9677 16.1575 23.4371 15.9691 23.0193 15.5923C22.6081 15.2425 22.3759 14.7245 22.3892 14.1795C22.3892 13.5807 22.6147 13.1098 23.0591 12.7532C23.5035 12.3967 24.1004 12.2217 24.8432 12.2217C25.4799 12.2217 25.9972 12.3428 26.4084 12.5716V12.3227C26.4084 11.9526 26.2493 11.6028 25.9707 11.3606C25.6855 11.1049 25.3207 10.9636 24.9427 10.9636C24.3458 10.9636 23.8749 11.2193 23.53 11.7306L22.5882 11.1318C23.0922 10.3851 23.855 10.0083 24.8697 10.0083ZM23.4902 14.1997C23.4902 14.4823 23.6228 14.7446 23.8417 14.9061C24.0805 15.0945 24.3723 15.1954 24.6708 15.1887C25.1218 15.1887 25.5529 15.007 25.8712 14.6841C26.2227 14.3477 26.4018 13.9508 26.4018 13.4933C26.0702 13.2242 25.6059 13.0896 25.009 13.0963C24.5779 13.0963 24.2131 13.204 23.9213 13.4125C23.6361 13.6211 23.4902 13.8835 23.4902 14.1997Z" fill="black"/>
<path fill-rule="evenodd" clip-rule="evenodd" d="M33.2861 10.1967L29.7178 18.5055H28.6168L29.9433 15.5991L27.6021 10.1967H28.7627L30.454 14.341H30.4739L32.1254 10.1967H33.2861Z" fill="black"/>
<path fill-rule="evenodd" clip-rule="evenodd" d="M13.7275 11.8114C13.7275 11.4817 13.701 11.152 13.6479 10.8291H9.14453V12.6927H11.7245C11.6184 13.2915 11.2735 13.8297 10.7695 14.1661V15.3771H12.3082C13.2102 14.5361 13.7275 13.2915 13.7275 11.8114Z" fill="#4285F4"/>
<path fill-rule="evenodd" clip-rule="evenodd" d="M9.14404 16.5477C10.4307 16.5477 11.5184 16.1172 12.3077 15.3771L10.769 14.1661C10.3379 14.4621 9.78738 14.6303 9.14404 14.6303C7.89714 14.6303 6.84259 13.7759 6.46454 12.6322H4.87939V13.8835C5.68855 15.5184 7.34002 16.5477 9.14404 16.5477Z" fill="#34A853"/>
<path fill-rule="evenodd" clip-rule="evenodd" d="M6.46469 12.6322C6.26572 12.0334 6.26572 11.3808 6.46469 10.7753V9.53067H4.87954C4.1964 10.8964 4.1964 12.5111 4.87954 13.8768L6.46469 12.6322Z" fill="#FBBC04"/>
<path fill-rule="evenodd" clip-rule="evenodd" d="M9.14404 8.77714C9.82718 8.76369 10.4838 9.02607 10.9746 9.50374L12.3409 8.11782C11.472 7.29703 10.3312 6.84627 9.14404 6.85973C7.34002 6.85973 5.68855 7.8958 4.87939 9.53065L6.46454 10.782C6.84259 9.63157 7.89714 8.77714 9.14404 8.77714Z" fill="#EA4335"/>
</g>
<defs>
<clipPath id="clip0">
<rect width="37.5" height="24" fill="white"/>
</clipPath>
</defs>
</svg>
