<svg width="24" height="24" viewBox="0 0 24 24" fill="none" xmlns="http://www.w3.org/2000/svg">
<g clip-path="url(#clip0_1_196)">
<circle cx="12" cy="12" r="11" stroke="black" stroke-width="2"/>
<path d="M10.9062 14.3125C10.8438 13.1562 11.1562 12.625 12.4375 11.5938C13.5312 10.6875 13.8438 10.25 13.8438 9.46875C13.8438 8.28125 13.0625 7.5625 11.8438 7.5625C10.4062 7.5625 9.46875 8.5625 9.3125 10.125L7.59375 9.78125C7.8125 7.46875 9.46875 5.96875 11.875 5.96875C14.1875 5.96875 15.75 7.3125 15.75 9.34375C15.75 10.5938 15.1875 11.5 13.7812 12.5312C12.8438 13.2188 12.4688 13.6562 12.4688 14.1875V14.3125H10.9062ZM10.5312 18V15.5625H12.9688V18H10.5312Z" fill="black"/>
</g>
<defs>
<clipPath id="clip0_1_196">
<rect width="24" height="24" fill="white"/>
</clipPath>
</defs>
</svg>
