<svg width="24" height="24" viewBox="0 0 24 24" fill="none" xmlns="http://www.w3.org/2000/svg">
<path d="M20.69 18.37L21.83 17.37L20.83 15.64L19.38 16.13C19.06 15.86 18.7 15.65 18.3 15.5L18 14H16L15.7 15.49C15.3 15.64 14.94 15.85 14.62 16.12L13.17 15.63L12.17 17.36L13.31 18.36C13.23 18.86 13.23 19.12 13.31 19.62L12.17 20.62L13.17 22.35L14.62 21.86C14.94 22.13 15.3 22.34 15.7 22.49L16 24H18L18.3 22.51C18.7 22.36 19.06 22.15 19.38 21.88L20.83 22.37L21.83 20.64L20.69 19.64C20.77 19.13 20.77 18.87 20.69 18.37ZM17 21C15.9 21 15 20.1 15 19C15 17.9 15.9 17 17 17C18.1 17 19 17.9 19 19C19 20.1 18.1 21 17 21ZM9 7V12.41L11.36 14.77L12.4 12.98L11 11.59V7H9ZM19 12C19 9.61305 18.0518 7.32387 16.364 5.63604C14.6761 3.94821 12.3869 3 10 3C7.17 3 4.65 4.32 3 6.36V4H1V10H7V8H4.26C4.90497 7.07519 5.76351 6.31961 6.76276 5.79735C7.76202 5.27509 8.8725 5.00157 10 5C13.86 5 17 8.14 17 12H19ZM8.86 18.91C5.87 18.42 3.51 16.01 3.08 13H1.06C1.56 17.5 5.37 21 10 21H10.07L8.86 18.91Z" fill="white" fill-opacity="0.7"/>
</svg>
