<svg width="24" height="14" viewBox="0 0 24 14" fill="none" xmlns="http://www.w3.org/2000/svg">
<path d="M7.104 12.176L2.688 7.76L7.104 3.344L5.76 2L0 7.76L5.76 13.52L7.104 12.176ZM16.896 12.176L21.312 7.76L16.896 3.344L18.24 2L24 7.76L18.24 13.52L16.896 12.176Z" fill="white" fill-opacity="0.7"/>
<path d="M8.79688 4.66016H10.2148V11.5508C10.2148 11.9844 10.1406 12.3496 9.99219 12.6465C9.84375 12.9473 9.625 13.1738 9.33594 13.3262C9.04688 13.4824 8.69336 13.5605 8.27539 13.5605C8.15039 13.5605 8.02148 13.5508 7.88867 13.5312C7.75195 13.5156 7.62305 13.4922 7.50195 13.4609L7.50781 12.3594C7.58984 12.375 7.67773 12.3867 7.77148 12.3945C7.86133 12.4062 7.94727 12.4121 8.0293 12.4121C8.19727 12.4121 8.33789 12.3828 8.45117 12.3242C8.56445 12.2656 8.65039 12.1738 8.70898 12.0488C8.76758 11.9238 8.79688 11.7578 8.79688 11.5508V4.66016ZM8.67383 2.99609C8.67383 2.78125 8.74609 2.60352 8.89062 2.46289C9.03516 2.31836 9.23242 2.24609 9.48242 2.24609C9.73633 2.24609 9.93359 2.31836 10.0742 2.46289C10.2188 2.60352 10.291 2.78125 10.291 2.99609C10.291 3.20703 10.2188 3.38281 10.0742 3.52344C9.93359 3.66406 9.73633 3.73438 9.48242 3.73438C9.23242 3.73438 9.03516 3.66406 8.89062 3.52344C8.74609 3.38281 8.67383 3.20703 8.67383 2.99609ZM15.2949 9.2832C15.2949 9.14258 15.2598 9.01562 15.1895 8.90234C15.1191 8.78516 14.9844 8.67969 14.7852 8.58594C14.5898 8.49219 14.3008 8.40625 13.918 8.32812C13.582 8.25391 13.2734 8.16602 12.9922 8.06445C12.7148 7.95898 12.4766 7.83203 12.2773 7.68359C12.0781 7.53516 11.9238 7.35938 11.8145 7.15625C11.7051 6.95312 11.6504 6.71875 11.6504 6.45312C11.6504 6.19531 11.707 5.95117 11.8203 5.7207C11.9336 5.49023 12.0957 5.28711 12.3066 5.11133C12.5176 4.93555 12.7734 4.79688 13.0742 4.69531C13.3789 4.59375 13.7188 4.54297 14.0938 4.54297C14.625 4.54297 15.0801 4.63281 15.459 4.8125C15.8418 4.98828 16.1348 5.22852 16.3379 5.5332C16.541 5.83398 16.6426 6.17383 16.6426 6.55273H15.2305C15.2305 6.38477 15.1875 6.22852 15.1016 6.08398C15.0195 5.93555 14.8945 5.81641 14.7266 5.72656C14.5586 5.63281 14.3477 5.58594 14.0938 5.58594C13.8516 5.58594 13.6504 5.625 13.4902 5.70312C13.334 5.77734 13.2168 5.875 13.1387 5.99609C13.0645 6.11719 13.0273 6.25 13.0273 6.39453C13.0273 6.5 13.0469 6.5957 13.0859 6.68164C13.1289 6.76367 13.1992 6.83984 13.2969 6.91016C13.3945 6.97656 13.5273 7.03906 13.6953 7.09766C13.8672 7.15625 14.082 7.21289 14.3398 7.26758C14.8242 7.36914 15.2402 7.5 15.5879 7.66016C15.9395 7.81641 16.209 8.01953 16.3965 8.26953C16.584 8.51562 16.6777 8.82812 16.6777 9.20703C16.6777 9.48828 16.6172 9.74609 16.4961 9.98047C16.3789 10.2109 16.207 10.4121 15.9805 10.584C15.7539 10.752 15.4824 10.8828 15.166 10.9766C14.8535 11.0703 14.502 11.1172 14.1113 11.1172C13.5371 11.1172 13.0508 11.0156 12.6523 10.8125C12.2539 10.6055 11.9512 10.3418 11.7441 10.0215C11.541 9.69727 11.4395 9.36133 11.4395 9.01367H12.8047C12.8203 9.27539 12.8926 9.48438 13.0215 9.64062C13.1543 9.79297 13.3184 9.9043 13.5137 9.97461C13.7129 10.041 13.918 10.0742 14.1289 10.0742C14.3828 10.0742 14.5957 10.041 14.7676 9.97461C14.9395 9.9043 15.0703 9.81055 15.1602 9.69336C15.25 9.57227 15.2949 9.43555 15.2949 9.2832Z" fill="white" fill-opacity="0.7"/>
</svg>
