<?xml version="1.0" encoding="utf-8"?>
<!-- Generator: Adobe Illustrator 21.1.0, SVG Export Plug-In . SVG Version: 6.00 Build 0)  -->
<svg version="1.1" id="Слой_1" xmlns="http://www.w3.org/2000/svg" xmlns:xlink="http://www.w3.org/1999/xlink" x="0px" y="0px"
	 viewBox="0 0 255.1 141.7" style="enable-background:new 0 0 255.1 141.7;" xml:space="preserve">
<style type="text/css">
	.st0{fill:#FFFFFF;}
	.st1{fill:url(#SVGID_1_);}
</style>
<path class="st0" d="M12.8,76.6c1.6,0,2.9,0.4,3.8,1.1s1.4,1.8,1.4,3.2c0,0.7-0.2,1.3-0.7,1.9c-0.4,0.6-1,1-1.7,1.2
	c0.9,0.2,1.7,0.7,2.2,1.4c0.5,0.7,0.8,1.6,0.8,2.6c0,1.4-0.5,2.6-1.4,3.3c-0.9,0.8-2.2,1.1-3.7,1.1H6V91l1.7-0.3V78.3L6,78v-1.4h1.7
	H12.8L12.8,76.6z M9.8,85v5.7h3.6c1,0,1.7-0.2,2.2-0.7c0.5-0.5,0.8-1.2,0.8-2c0-0.9-0.2-1.7-0.7-2.2c-0.4-0.5-1.1-0.8-2-0.8H9.8
	L9.8,85z M9.8,83.3h3.5c0.7,0,1.4-0.3,1.8-0.7c0.5-0.4,0.7-1,0.7-1.8c0-0.9-0.3-1.5-0.8-1.9s-1.3-0.6-2.3-0.6H9.8V83.3L9.8,83.3z
	 M22.3,78v-1.4h5.5V78l-1.7,0.3v12.4l1.7,0.3v1.4h-5.5V91l1.7-0.3V78.3L22.3,78L22.3,78z M46.3,76.6V78l-1.7,0.3v12.4h2.1l-0.2,5.5
	h-1.9v-3.9H33.5v3.9h-1.8l-0.3-5.6h1.3c0.5-0.6,1-1.6,1.5-2.8c0.5-1.2,0.7-2.9,0.7-5l0.3-4.7L33.6,78v-1.4h11H46.3L46.3,76.6z
	 M37.1,83c-0.1,1.7-0.3,3.2-0.6,4.5c-0.4,1.3-0.8,2.4-1.4,3.2h7.5V78.3h-5.2L37.1,83L37.1,83z M50.3,91.1l1.7-0.3V78.3L50.3,78v-1.4
	h5.5V78l-1.7,0.3v5.4h1.7l3.5-5.1c0.6-0.8,1.1-1.4,1.5-1.7c0.4-0.3,0.9-0.4,1.5-0.4c0.3,0,0.6,0,0.8,0.1s0.5,0.2,0.7,0.4l-0.3,1.5
	c-0.2,0-0.4-0.1-0.5-0.1s-0.3,0-0.4,0c-0.3,0-0.6,0.1-0.8,0.3c-0.2,0.2-0.5,0.5-0.8,0.9l-3.3,4.7l5.1,6.5l1.5,0.3v1.4h-5.1v-1.4
	l1.2-0.2l-4.2-5.4h-2v5.2l1.7,0.3v1.4h-5.5v-1.3H50.3z M74.8,76.6c1.6,0,2.9,0.4,3.8,1.3s1.4,2,1.4,3.4s-0.5,2.6-1.4,3.4
	c-0.9,0.9-2.2,1.3-3.8,1.3h-3.3v4.7l1.7,0.3v1.4h-5.5V91l1.7-0.3V78.3L67.7,78v-1.4h1.7H74.8L74.8,76.6z M71.5,84.4h3.3
	c1,0,1.8-0.3,2.3-0.9s0.8-1.3,0.8-2.2c0-0.9-0.3-1.6-0.8-2.2s-1.3-0.9-2.3-0.9h-3.3V84.4L71.5,84.4z M89.2,76.6V78l-1.7,0.3v9.1h0.1
	l7.4-8.1v-1L93.2,78v-1.4h1.7H97h1.7V78L97,78.3v12.4l1.7,0.3v1.4h-5.5V91l1.7-0.3v-8.8h-0.1L87.4,90v0.7l1.7,0.3v1.4h-5.5V91
	l1.7-0.3V78.3L83.6,78v-1.4h1.7h2.1H89.2L89.2,76.6z M114.7,76.6v3.5h-1.8l-0.2-1.8h-3.4v12.4L111,91v1.4h-5.5V91l1.7-0.3V78.3h-3.4
	l-0.1,1.8h-1.8v-3.5C101.9,76.6,114.7,76.6,114.7,76.6z"/>
<path class="st0" d="M107.3,49.2v1.6l-2.1,0.4v14.9h2.5l-0.3,6.6h-2.2v-4.6H91.9v4.7h-2.1l-0.4-6.6H91c0.6-0.8,1.2-1.9,1.8-3.3
	c0.5-1.5,0.9-3.4,0.9-5.9l0.3-5.7L92.1,51v-1.6h13.2h2V49.2z M96.2,56.8c-0.1,2-0.3,3.9-0.8,5.4c-0.4,1.6-1,2.8-1.7,3.8h8.9V51.2
	h-6.2L96.2,56.8z"/>
<path class="st0" d="M142.6,49.2c1.9,0,3.5,0.4,4.5,1.3c1.1,0.9,1.6,2.1,1.6,3.8c0,0.9-0.3,1.6-0.8,2.3s-1.2,1.1-2.1,1.5
	c1.1,0.3,2,0.8,2.6,1.7s1,1.9,1,3.1c0,1.7-0.5,3.1-1.7,4c-1.1,0.9-2.6,1.4-4.4,1.4h-8.9v-1.6l2.1-0.3V51.2l-2.1-0.4v-1.6h2.1H142.6
	L142.6,49.2z M139.1,59.2v6.9h4.3c1.1,0,2-0.3,2.6-0.9s0.9-1.4,0.9-2.4c0-1.1-0.3-2-0.8-2.6s-1.3-1-2.4-1L139.1,59.2L139.1,59.2z
	 M139.1,57.2h4.2c0.9,0,1.6-0.3,2.2-0.8c0.5-0.5,0.8-1.2,0.8-2.2s-0.3-1.8-0.9-2.3c-0.6-0.5-1.5-0.7-2.7-0.7h-3.5v6H139.1z"/>
<path class="st0" d="M155,66.4l2.1-0.3V51.2l-2.1-0.4v-1.6h6.6v1.6l-2.1,0.4v6.5h2l4.2-6.1c0.7-1,1.3-1.6,1.8-2
	c0.5-0.3,1.1-0.5,1.8-0.5c0.4,0,0.7,0,1,0.1s0.6,0.2,0.9,0.5l-0.4,1.8c-0.2,0-0.4-0.1-0.6-0.1c-0.2,0-0.3,0-0.5,0
	c-0.4,0-0.8,0.1-1,0.3c-0.3,0.2-0.6,0.6-1,1.1l-4,5.7l6.1,7.8l1.7,0.3v1.6h-6v-1.6l1.4-0.2l-5-6.4h-2.4v6.3l2.1,0.3v1.6H155V66.4z"
	/>
<path class="st0" d="M176.9,50.8v-1.6h6.6v1.6l-2.1,0.4v14.9l2.1,0.3V68h-6.6v-1.6l2.1-0.3V51.2L176.9,50.8z"/>
<path class="st0" d="M195.4,51.2l-0.3,6.9c-0.2,3.5-0.6,6.1-1.5,7.7c-0.8,1.6-2.2,2.3-4.2,2.3h-0.6v-2h0.5c1.1,0,1.9-0.6,2.4-1.8
	c0.5-1.2,0.8-3.3,0.9-6.2l0.3-6.9l-2-0.3v-1.6h15.4v1.6l-2.1,0.4v14.9l2.1,0.3v1.6h-6.6v-1.6l2.1-0.3v-15H195.4z"/>
<path class="st0" d="M218.3,51.2l-0.3,6.9c-0.2,3.5-0.6,6.1-1.5,7.7c-0.8,1.6-2.2,2.3-4.2,2.3h-0.6v-2h0.5c1.1,0,1.9-0.6,2.4-1.8
	c0.5-1.2,0.8-3.3,0.9-6.2l0.3-6.9l-2-0.3v-1.6h15.4v1.6l-2.1,0.4v14.9l2.1,0.3v1.6h-6.6v-1.6l2.1-0.3v-15H218.3z"/>
<path class="st0" d="M234.6,65.8c0.2,0.1,0.3,0.1,0.4,0.1c0.1,0,0.2,0,0.4,0c0.3,0,0.6-0.1,0.9-0.3c0.3-0.2,0.5-0.5,0.7-0.9l2.6-4.6
	c-1.3-0.5-2.3-1.1-3-2s-1-2-1-3.3c0-1.8,0.6-3.2,1.7-4.2c1.1-1,2.8-1.5,4.8-1.5h8v1.6l-2.1,0.4V66l2.1,0.3v1.6h-4.6v-7.4h-3.8
	l-2.8,5.2c-0.4,0.7-0.9,1.3-1.4,1.7c-0.5,0.4-1.1,0.6-1.8,0.6c-0.3,0-0.6-0.1-0.9-0.1c-0.2-0.1-0.5-0.2-0.7-0.4L234.6,65.8
	L234.6,65.8z M238.1,54.8c0,1.1,0.3,2,1,2.8c0.7,0.7,1.7,1,3,1h3.4v-7.4h-3.4c-1.3,0-2.3,0.3-3,1C238.5,52.8,238.1,53.7,238.1,54.8
	L238.1,54.8z M243.5,68.1h2.1v-2l-2.1,0.3V68.1z"/>
<linearGradient id="SVGID_1_" gradientUnits="userSpaceOnUse" x1="105.2879" y1="90.9135" x2="150.3392" y2="38.8186" gradientTransform="matrix(1 0 0 -1 0 141.89)">
	<stop  offset="0" style="stop-color:#DBE120"/>
	<stop  offset="0.45" style="stop-color:#008DB3"/>
	<stop  offset="1" style="stop-color:#1A7F3F"/>
</linearGradient>
<path class="st1" d="M111.6,58.1c0,1.3,0.2,2.5,0.6,3.5c0.4,1.1,1,2,1.8,2.8s1.7,1.5,2.7,1.9s2.1,0.6,3.3,0.6c1.2,0,2.3-0.2,3.3-0.6
	s1.9-1,2.7-1.9c0.8-0.8,1.4-1.8,1.8-2.8c0.4-1.1,0.6-2.2,0.6-3.5s-0.2-2.5-0.6-3.5c-0.4-1.1-1-2-1.8-2.8s-1.7-1.5-2.7-1.9
	s-2.1-0.6-3.3-0.6c-1.2,0-2.3,0.2-3.3,0.6c-1,0.4-1.9,1-2.7,1.9c-0.8,0.8-1.4,1.8-1.8,2.8C111.8,55.6,111.6,56.8,111.6,58.1
	L111.6,58.1z M116.7,92.7v-0.3v-2h1.8V76.5v-6.4c-1.1-0.1-2.2-0.4-3.2-0.8c-1.4-0.6-2.7-1.4-3.9-2.6c-1.2-1.2-2-2.5-2.6-3.9
	s-0.9-3-0.9-4.7l0,0c0-1.7,0.3-3.3,0.9-4.7s1.4-2.7,2.6-3.9s2.4-2,3.9-2.6c1.4-0.6,3-0.9,4.7-0.9c0.7,0,1.3,0,2,0.1
	c0.6,0.1,1.3,0.2,1.8,0.4c0.6,0.2,1.2,0.4,1.7,0.7c0.6,0.3,1.1,0.6,1.6,1c0.8,0.6,1.5,1.2,2.1,1.9c0.6,0.7,1.1,1.5,1.6,2.4
	c0.4,0.9,0.8,1.7,1,2.7c0.2,0.9,0.3,1.9,0.3,2.9c0,1.7-0.3,3.3-0.9,4.7c-0.6,1.4-1.4,2.7-2.6,3.9c-1.2,1.2-2.5,2-3.9,2.6
	c-1.1,0.4-2.3,0.7-3.6,0.8v6.4h5.9v2.3h-5.8v4.5h5.8v2.4h-5.8v4.7h6.4v-2.2h2.5v4.5H116.7z"/>
</svg>
