<svg xmlns="http://www.w3.org/2000/svg" xmlns:xlink="http://www.w3.org/1999/xlink" version="1.1" x="0px" y="0px" viewBox="0 0 100 125" enable-background="new 0 0 100 100" xml:space="preserve"><path d="M50,12.938c-15.784,0-28.625,12.841-28.625,28.625c0,12.029,7.007,23.533,12.885,31.064  C37.268,76.481,46.586,87.063,50,87.063c3.534,0,12.375-9.806,15.865-14.279c5.821-7.46,12.76-18.933,12.76-31.221  C78.625,25.778,65.784,12.938,50,12.938z M50.065,80.57c-5.078-4.025-22.69-22.007-22.69-39.008  c0-12.476,10.149-22.625,22.625-22.625s22.625,10.149,22.625,22.625C72.625,59.311,55.102,76.764,50.065,80.57z M50,30.925  c-5.865,0-10.638,4.772-10.638,10.638S44.135,52.2,50,52.2s10.638-4.772,10.638-10.638S55.865,30.925,50,30.925z M50,46.2  c-2.558,0-4.638-2.08-4.638-4.638s2.08-4.638,4.638-4.638s4.638,2.08,4.638,4.638S52.558,46.2,50,46.2z"/></svg>