<svg width="38" height="24" viewBox="0 0 38 24" fill="none" xmlns="http://www.w3.org/2000/svg">
<g clip-path="url(#clip0)">
<path d="M34.1234 0H3.35648C3.22832 0 3.09993 0 2.972 0.000678889C2.86399 0.00158408 2.7562 0.00271556 2.6482 0.00565741C2.41293 0.0119937 2.17563 0.0257978 1.9433 0.0676626C1.70736 0.10998 1.48772 0.179227 1.27351 0.288302C1.0627 0.39534 0.87 0.535417 0.702664 0.702424C0.535555 0.869657 0.395392 1.06201 0.288288 1.27292C0.179146 1.48699 0.109857 1.7065 0.0677403 1.94253C0.0256234 2.17494 0.0118109 2.41187 0.00547067 2.64676C0.00252702 2.75471 0.00116841 2.86242 0.0004891 2.97014C-0.000190206 3.09822 3.62296e-05 3.22631 3.62296e-05 3.35462V20.6251C3.62296e-05 20.7534 -0.000190206 20.8813 0.0004891 21.0096C0.00116841 21.1173 0.00252702 21.2253 0.00547067 21.333C0.0118109 21.5676 0.0256234 21.8048 0.0677403 22.037C0.109857 22.273 0.179146 22.4925 0.288288 22.7068C0.395392 22.9175 0.535555 23.1101 0.702664 23.2771C0.87 23.4443 1.0627 23.5844 1.27351 23.6912C1.48772 23.8005 1.70736 23.8698 1.9433 23.9123C2.17563 23.9537 2.41293 23.9677 2.6482 23.9741C2.7562 23.9766 2.86399 23.9781 2.972 23.9786C3.09993 23.9795 3.22832 23.9795 3.35648 23.9795H34.1234C34.2513 23.9795 34.3797 23.9795 34.5076 23.9786C34.6154 23.9781 34.7232 23.9766 34.8316 23.9741C35.0665 23.9677 35.3038 23.9537 35.5365 23.9123C35.7723 23.8698 35.9919 23.8005 36.2063 23.6912C36.4171 23.5844 36.6094 23.4443 36.777 23.2771C36.9438 23.1101 37.084 22.9175 37.1913 22.7068C37.3007 22.4925 37.37 22.273 37.4119 22.037C37.454 21.8048 37.4676 21.5676 37.4739 21.333C37.4769 21.2253 37.4782 21.1173 37.4789 21.0096C37.4798 20.8813 37.4798 20.7534 37.4798 20.6251V3.35462C37.4798 3.22631 37.4798 3.09822 37.4789 2.97014C37.4782 2.86242 37.4769 2.75471 37.4739 2.64676C37.4676 2.41187 37.454 2.17494 37.4119 1.94253C37.37 1.7065 37.3007 1.48699 37.1913 1.27292C37.084 1.06201 36.9438 0.869657 36.777 0.702424C36.6094 0.535417 36.4171 0.39534 36.2063 0.288302C35.9919 0.179227 35.7723 0.10998 35.5365 0.0676626C35.3038 0.0257978 35.0665 0.0119937 34.8316 0.00565741C34.7232 0.00271556 34.6154 0.00158408 34.5076 0.000678889C34.3797 0 34.2513 0 34.1234 0Z" fill="black"/>
<path d="M34.1234 0.799301L34.502 0.79998C34.6043 0.800659 34.7069 0.80179 34.8099 0.804732C34.9892 0.809485 35.1992 0.819215 35.3948 0.854291C35.5646 0.884841 35.7073 0.931458 35.844 1.00093C35.9792 1.0695 36.1029 1.15957 36.2109 1.26728C36.3193 1.3759 36.4094 1.49969 36.479 1.63615C36.5483 1.77192 36.5944 1.91359 36.625 2.08467C36.6599 2.27815 36.6696 2.48838 36.6744 2.66874C36.6773 2.77034 36.6787 2.87218 36.6791 2.9765C36.68 3.10255 36.68 3.22837 36.68 3.35464V20.6251C36.68 20.7514 36.68 20.8772 36.6791 21.0058C36.6787 21.1076 36.6773 21.2094 36.6744 21.3115C36.6696 21.4914 36.6599 21.7016 36.6246 21.8972C36.5944 22.066 36.5483 22.2076 36.4785 22.3441C36.4092 22.4803 36.3193 22.6039 36.2113 22.7118C36.1026 22.8204 35.9794 22.9101 35.8427 22.9793C35.7068 23.0485 35.5646 23.0952 35.3964 23.1253C35.1967 23.1608 34.9782 23.1707 34.8135 23.175C34.7101 23.1775 34.607 23.1789 34.5013 23.1793C34.3756 23.1803 34.2493 23.1803 34.1234 23.1803H3.35648C3.3549 23.1803 3.35331 23.1803 3.3515 23.1803C3.22719 23.1803 3.10242 23.1803 2.97585 23.1793C2.87259 23.1789 2.76956 23.1775 2.66993 23.1753C2.50146 23.1707 2.28273 23.1608 2.08482 23.1255C1.915 23.0952 1.7728 23.0485 1.63512 22.9784C1.49972 22.9098 1.37653 22.8202 1.26785 22.7114C1.16006 22.6039 1.07039 22.4805 1.00111 22.3441C0.93159 22.2079 0.885171 22.0657 0.854602 21.8949C0.819505 21.6996 0.809768 21.4905 0.804786 21.3115C0.802069 21.2092 0.800937 21.1067 0.800258 21.0051L0.799805 20.7046V3.27544L0.800258 2.97559C0.800937 2.87308 0.802069 2.7708 0.804786 2.66851C0.809768 2.48928 0.819505 2.27996 0.855055 2.08308C0.885171 1.91404 0.93159 1.7717 1.00133 1.63479C1.07017 1.49946 1.16006 1.3759 1.2683 1.26773C1.37631 1.15957 1.50017 1.06995 1.63626 1.00071C1.77234 0.931232 1.915 0.884841 2.08482 0.854291C2.28046 0.819215 2.49037 0.809485 2.67016 0.804732C2.77251 0.80179 2.87508 0.800659 2.97675 0.79998L3.35648 0.799301H34.1234Z" fill="#FFFFFE"/>
<path d="M20.6867 12.7972V15.1466H19.5884V8.82353H22.0064C22.7126 8.82353 23.2733 9.00737 23.6887 9.37506C24.104 9.74275 24.3116 10.2291 24.3116 10.8342C24.3116 11.4538 24.1083 11.9358 23.7017 12.2804C23.2951 12.6249 22.7256 12.7972 21.9934 12.7972H20.6867ZM20.6549 11.8708H21.9703C22.3598 11.8708 22.6569 11.7787 22.8617 11.5946C23.0665 11.4105 23.1689 11.1445 23.1689 10.7966C23.1689 10.4545 23.0651 10.1812 22.8574 9.97682C22.6497 9.77242 22.3641 9.66733 22.0006 9.66153H20.6549V11.8708ZM27.8808 15.1359C27.8345 15.046 27.7939 14.8998 27.7591 14.697C27.423 15.0475 27.0116 15.2228 26.5248 15.2228C26.0525 15.2228 25.6672 15.0881 25.3687 14.8186C25.0703 14.5492 24.9211 14.2161 24.9211 13.8192C24.9211 13.318 25.1072 12.9334 25.4796 12.6655C25.8519 12.3975 26.3843 12.2635 27.0768 12.2635H27.7244V11.955C27.7244 11.7116 27.6563 11.5168 27.5201 11.3705C27.3839 11.2242 27.1767 11.1511 26.8986 11.1511C26.6581 11.1511 26.4611 11.2112 26.3075 11.3314C26.1539 11.4516 26.0772 11.6044 26.0772 11.7898H25.021C25.021 11.532 25.1065 11.2908 25.2775 11.0663C25.4484 10.8418 25.6809 10.6658 25.975 10.5384C26.2691 10.4109 26.5972 10.3472 26.9594 10.3472C27.51 10.3472 27.9489 10.4855 28.2763 10.7621C28.6037 11.0388 28.7718 11.4277 28.7805 11.9289V14.0495C28.7805 14.4724 28.8399 14.8099 28.9587 15.062V15.1359H27.8808ZM26.7329 14.3848C26.9421 14.3848 27.139 14.3341 27.3235 14.2326C27.508 14.1312 27.6468 13.995 27.7398 13.824V12.9373H27.1688C26.7765 12.9373 26.4816 13.0054 26.284 13.1416C26.0864 13.2778 25.9876 13.4705 25.9876 13.7197C25.9876 13.9226 26.0552 14.0841 26.1903 14.2044C26.3254 14.3246 26.5063 14.3848 26.7329 14.3848ZM31.4605 13.626L32.4108 10.4233H33.5296L31.6721 15.8599C31.3871 16.6541 30.9033 17.0511 30.2208 17.0511C30.0681 17.0511 29.8997 17.0249 29.7154 16.9726V16.1523L29.9141 16.1654C30.179 16.1654 30.3784 16.1167 30.5123 16.0192C30.6463 15.9218 30.7521 15.7581 30.8298 15.5283L30.981 15.1226L29.3396 10.4233H30.4713L31.4605 13.626Z" fill="black"/>
<path d="M10.1022 13.4571V14.1177H7.14746L7.15308 14.0166C7.20221 13.1334 7.50703 12.76 8.45668 12.1668C8.45561 12.1674 8.62273 12.063 8.67062 12.0324C9.19468 11.698 9.42049 11.4374 9.42049 11.0391C9.42049 10.6219 9.12896 10.3374 8.69882 10.3374C8.20134 10.3374 7.94546 10.7146 7.93147 11.3035L7.92926 11.397H7.2751L7.27064 11.3059L7.265 11.1881C7.265 10.3026 7.85104 9.70589 8.72234 9.70589C9.57428 9.70589 10.1382 10.2293 10.1382 11.0281C10.1382 11.7568 9.79265 12.1154 8.82568 12.6995C8.81606 12.7053 8.81606 12.7053 8.80642 12.711C8.78433 12.7242 8.68345 12.7838 8.65606 12.8001C8.26218 13.0351 8.05819 13.2109 7.96257 13.4571H10.1022ZM13.5886 12.439V13.0967H13.0103V14.1177H12.3466V13.0967H10.4899V12.4864L10.507 12.4319L12.3734 9.74707L12.4523 9.70589H13.0103V12.439H13.5886ZM11.27 12.4376H12.3466V10.8447L11.27 12.4376Z" fill="black" fill-opacity="0.87"/>
<path d="M10.4119 5.55882C6.85635 5.55882 3.9707 8.44447 3.9707 12C3.9707 15.5555 6.85635 18.4412 10.4119 18.4412C13.9674 18.4412 16.8531 15.5555 16.8531 12C16.8531 8.44447 13.9674 5.55882 10.4119 5.55882ZM10.4119 17.6233C7.31206 17.6233 4.78863 15.0998 4.78863 12C4.78863 8.90018 7.31206 6.37675 10.4119 6.37675C13.5117 6.37675 16.0351 8.90018 16.0351 12C16.0351 15.0998 13.5117 17.6233 10.4119 17.6233Z" fill="#8DC641"/>
</g>
<defs>
<clipPath id="clip0">
<rect width="37.5" height="24" fill="white"/>
</clipPath>
</defs>
</svg>
