<svg width="260" height="48" viewBox="0 0 260 48" fill="none" xmlns="http://www.w3.org/2000/svg">
<g clip-path="url(#clip0_1465_9009)">
<path fill-rule="evenodd" clip-rule="evenodd" d="M54.0079 33.1534C55.5745 24.537 51.7162 20.9387 49.8203 20.2095L50.1793 19.2761C52.6167 20.2136 56.6251 24.3486 54.9917 33.3322L54.0079 33.1534Z" fill="#EF2B2B"/>
<path fill-rule="evenodd" clip-rule="evenodd" d="M5.57635 22.3815C3.57456 22.8099 1.59054 22.5751 0.359375 22.2234L0.634096 21.2618C1.73626 21.5767 3.55225 21.792 5.36712 21.4037C7.16823 21.0183 8.94314 20.0467 10.0578 18.0032L10.9357 18.482C9.65033 20.8385 7.59191 21.9503 5.57635 22.3815Z" fill="#F498C4"/>
<path fill-rule="evenodd" clip-rule="evenodd" d="M192.112 48.6337C188.984 38.0777 179.391 33.7964 175 32.9833L175.182 32C179.791 32.8535 189.798 37.3056 193.07 48.3496L192.112 48.6337Z" fill="#FFC70A"/>
<path d="M94.5 0L98.7426 4.24264L94.5 8.48528L90.2574 4.24264L94.5 0Z" fill="#0068FF"/>
<path d="M15 39.7427L18.5005 43.2431L15 46.7436L11.4995 43.2431L15 39.7427Z" fill="#0068FF"/>
<path d="M32.5 27.2427H35.5V30.2427H32.5V27.2427Z" fill="#F498C4"/>
<path d="M66.1719 38.2427L68.6933 38.9183L68.0177 41.4397L65.4963 40.7641L66.1719 38.2427Z" fill="#EF2B2B"/>
<path d="M172.258 6.24268L175.016 9.00045L172.258 11.7582L169.5 9.00045L172.258 6.24268Z" fill="#F498C4"/>
<path d="M211.273 8.31934L215.941 11.0139L213.246 15.681L208.579 12.9864L211.273 8.31934Z" fill="#F498C4"/>
<path d="M249.727 5.21777L251.89 6.46658L250.641 8.62957L248.478 7.38077L249.727 5.21777Z" fill="#EF2B2B"/>
<path d="M255.195 38.1689L259.987 40.9357L257.221 45.7278L252.429 42.9611L255.195 38.1689Z" fill="#F498C4"/>
<path fill-rule="evenodd" clip-rule="evenodd" d="M249.48 28.242C239.985 27.8464 237.266 31.6954 236.994 33.3247L236.008 33.1603C236.403 30.7895 239.817 26.8385 249.522 27.2429L249.48 28.242Z" fill="#0068FF"/>
<mask id="mask0_1465_9009" style="mask-type:alpha" maskUnits="userSpaceOnUse" x="107" y="0" width="49" height="48">
<rect x="107.5" width="48" height="48" fill="#D9D9D9"/>
</mask>
<g mask="url(#mask0_1465_9009)">
<path d="M128.7 33.2L142.8 19.1L140 16.3L128.7 27.6L123 21.9L120.2 24.7L128.7 33.2ZM131.5 44C128.733 44 126.133 43.475 123.7 42.425C121.267 41.375 119.15 39.95 117.35 38.15C115.55 36.35 114.125 34.2333 113.075 31.8C112.025 29.3667 111.5 26.7667 111.5 24C111.5 21.2333 112.025 18.6333 113.075 16.2C114.125 13.7667 115.55 11.65 117.35 9.85C119.15 8.05 121.267 6.625 123.7 5.575C126.133 4.525 128.733 4 131.5 4C134.267 4 136.867 4.525 139.3 5.575C141.733 6.625 143.85 8.05 145.65 9.85C147.45 11.65 148.875 13.7667 149.925 16.2C150.975 18.6333 151.5 21.2333 151.5 24C151.5 26.7667 150.975 29.3667 149.925 31.8C148.875 34.2333 147.45 36.35 145.65 38.15C143.85 39.95 141.733 41.375 139.3 42.425C136.867 43.475 134.267 44 131.5 44Z" fill="#007A64"/>
</g>
</g>
<defs>
<clipPath id="clip0_1465_9009">
<rect width="259" height="48" fill="white" transform="translate(0.5)"/>
</clipPath>
</defs>
</svg>
