<svg width="259" height="48" viewBox="0 0 259 48" fill="none" xmlns="http://www.w3.org/2000/svg">
<g clip-path="url(#clip0_3065_14023)">
<path fill-rule="evenodd" clip-rule="evenodd" d="M53.5079 33.1531C55.0745 24.5367 51.2162 20.9384 49.3203 20.2092L49.6793 19.2759C52.1167 20.2134 56.1251 24.3484 54.4917 33.332L53.5079 33.1531Z" fill="#EF2B2B"/>
<path fill-rule="evenodd" clip-rule="evenodd" d="M5.08026 22.3818C3.07846 22.8101 1.09445 22.5754 -0.136719 22.2236L0.138002 21.2621C1.24017 21.577 3.05616 21.7922 4.87102 21.4039C6.67213 21.0185 8.44705 20.0469 9.56169 18.0034L10.4396 18.4823C9.15423 20.8388 7.09582 21.9505 5.08026 22.3818Z" fill="#F498C4"/>
<path fill-rule="evenodd" clip-rule="evenodd" d="M191.612 48.6337C188.484 38.0777 178.891 33.7964 174.5 32.9833L174.682 32C179.291 32.8535 189.298 37.3056 192.57 48.3496L191.612 48.6337Z" fill="#FFC70A"/>
<path d="M94 0L98.2426 4.24264L94 8.48528L89.7574 4.24264L94 0Z" fill="#0068FF"/>
<path d="M14.5 39.7427L18.0005 43.2431L14.5 46.7436L10.9995 43.2431L14.5 39.7427Z" fill="#0068FF"/>
<path d="M32 27.2427H35V30.2427H32V27.2427Z" fill="#F498C4"/>
<path d="M65.6719 38.2427L68.1933 38.9183L67.5177 41.4397L64.9963 40.7641L65.6719 38.2427Z" fill="#EF2B2B"/>
<path d="M171.758 6.24268L174.516 9.00045L171.758 11.7582L169 9.00045L171.758 6.24268Z" fill="#F498C4"/>
<path d="M210.773 8.31934L215.441 11.0139L212.746 15.681L208.079 12.9864L210.773 8.31934Z" fill="#F498C4"/>
<path d="M249.227 5.21777L251.39 6.46658L250.141 8.62957L247.978 7.38077L249.227 5.21777Z" fill="#EF2B2B"/>
<path d="M254.695 38.1689L259.487 40.9357L256.721 45.7278L251.929 42.9611L254.695 38.1689Z" fill="#F498C4"/>
<path fill-rule="evenodd" clip-rule="evenodd" d="M248.978 28.2418C239.484 27.8462 236.764 31.6952 236.492 33.3244L235.506 33.16C235.901 30.7893 239.315 26.8383 249.02 27.2427L248.978 28.2418Z" fill="#0068FF"/>
<mask id="mask0_3065_14023" style="mask-type:alpha" maskUnits="userSpaceOnUse" x="107" y="0" width="48" height="48">
<rect x="107" width="48" height="48" fill="#D9D9D9"/>
</mask>
<g mask="url(#mask0_3065_14023)">
<path d="M128.2 33.2L142.3 19.1L139.5 16.3L128.2 27.6L122.5 21.9L119.7 24.7L128.2 33.2ZM131 44C128.233 44 125.633 43.475 123.2 42.425C120.767 41.375 118.65 39.95 116.85 38.15C115.05 36.35 113.625 34.2333 112.575 31.8C111.525 29.3667 111 26.7667 111 24C111 21.2333 111.525 18.6333 112.575 16.2C113.625 13.7667 115.05 11.65 116.85 9.85C118.65 8.05 120.767 6.625 123.2 5.575C125.633 4.525 128.233 4 131 4C133.767 4 136.367 4.525 138.8 5.575C141.233 6.625 143.35 8.05 145.15 9.85C146.95 11.65 148.375 13.7667 149.425 16.2C150.475 18.6333 151 21.2333 151 24C151 26.7667 150.475 29.3667 149.425 31.8C148.375 34.2333 146.95 36.35 145.15 38.15C143.35 39.95 141.233 41.375 138.8 42.425C136.367 43.475 133.767 44 131 44Z" fill="#007A64"/>
</g>
</g>
<defs>
<clipPath id="clip0_3065_14023">
<rect width="259" height="48" fill="white"/>
</clipPath>
</defs>
</svg>
