<svg xmlns="http://www.w3.org/2000/svg" xmlns:xlink="http://www.w3.org/1999/xlink" version="1.1" width="311.541" height="311.541" style="" xml:space="preserve"><rect id="backgroundrect" width="100%" height="100%" x="0" y="0" fill="none" stroke="none"/> <g class="currentLayer" style=""><title>Layer 1</title><g id="svg_1" class=""><g id="svg_2">
	<g id="svg_3">
		<path d="M155.21851358032225,0.9166348276138305 C69.18751358032226,0.9166348276138305 -0.5524864196777344,70.65663482761383 -0.5524864196777344,156.68763482761383 c0,37.488 13.25,71.883 35.314,98.761 c3.404,-27.256 30.627,-50.308 68.8,-61.225 c13.946,12.994 31.96,20.878 51.656,20.878 c19.233,0 36.894,-7.487 50.698,-19.936 c38.503,11.871 65.141,36.27 66.017,64.63 c24.284,-27.472 39.056,-63.555 39.056,-103.108 C310.98851358032226,70.65663482761383 241.24851358032225,0.9166348276138305 155.21851358032225,0.9166348276138305 zM155.21851358032225,196.65463482761382 c-9.944,0 -19.314,-2.732 -27.634,-7.464 c-20.05,-11.409 -33.855,-34.756 -33.855,-61.711 c0,-38.143 27.583,-69.176 61.489,-69.176 c33.909,0 61.489,31.033 61.489,69.176 c0,27.369 -14.237,51.004 -34.786,62.215 C173.82651358032226,194.10863482761383 164.79351358032227,196.65463482761382 155.21851358032225,196.65463482761382 z" data-original="#000000" class="active-path" data-old_color="#939292" fill="#919090" id="svg_4"/>
	</g>
</g></g></g></svg>