<svg xmlns="http://www.w3.org/2000/svg" xmlns:xlink="http://www.w3.org/1999/xlink" width="24px"
  height="24px" viewBox="0 0 24 24" version="1.1" fill="#0000008a">
  <g id="surface1">
    <path style=" stroke:none;fill-rule:nonzero;fill:rgb(0%,0%,0%);fill-opacity:0.54;"
      d="M 12 4.5 C 7 4.5 2.730469 7.609375 1 12 C 2.730469 16.390625 7 19.5 12 19.5 C 17.003906 19.5 21.269531 16.390625 23 12 C 21.269531 7.609375 17.003906 4.5 12 4.5 Z M 12 17 C 9.238281 17 7 14.761719 7 12 C 7 9.238281 9.238281 7 12 7 C 14.761719 7 17 9.238281 17 12 C 17 14.761719 14.761719 17 12 17 Z M 12 9 C 10.34375 9 9 10.34375 9 12 C 9 13.65625 10.34375 15 12 15 C 13.65625 15 15 13.65625 15 12 C 15 10.34375 13.65625 9 12 9 Z M 12 9 " />
  </g>
</svg>