<svg width="148" height="148" viewBox="0 0 148 148" fill="none" xmlns="http://www.w3.org/2000/svg">
<ellipse cx="79.5" cy="74" rx="52.5" ry="52" fill="#F498C4"/>
<rect x="27" y="22" width="52" height="52" fill="#FF5319"/>
<path d="M112 127.259C107.406 128.218 102.247 129.416 96.9269 128.857C94.0252 128.617 91.204 127.739 88.7053 126.54C85.8841 125.102 83.6272 123.024 82.0957 120.547C78.7909 115.114 78.8715 108.003 82.4987 99.7732C83.1436 98.2551 83.869 96.8168 84.5139 95.3786C86.3678 91.5434 88.1411 87.9478 88.5441 84.1925C88.7859 81.9553 88.3023 79.0788 86.7708 77.8803C85.4005 76.7617 82.4181 76.6019 78.9521 77.4009C73.5516 78.7592 68.6348 81.7955 63.3955 84.9915C62.267 85.7106 61.1385 86.3498 60.0101 87.0689C57.4307 88.6669 53.4005 90.8243 49.0479 92.5022C46.4685 93.461 44.0504 94.1002 41.9547 94.4198C39.1335 94.8193 36.6348 94.6595 34.4584 93.9404C31.3149 92.9017 28.9773 90.5846 27.6877 87.3885C26.6398 84.8317 26.5592 81.7156 27.3652 78.5195C28.3325 74.8441 30.1864 71.2485 33.1688 67.5731C35.7481 64.377 38.8917 61.5006 41.3098 59.3433C43.3249 57.5056 45.5013 55.9075 47.597 54.3095C50.0957 52.3919 52.4333 50.6341 54.529 48.6365C57.2695 46.0797 60.8967 42.2445 61.2998 38.0097C61.7028 33.6951 58.1562 30.0995 54.4484 28.5015C51.3048 27.0633 47.4358 26.5839 42.2771 26.8236C34.9421 27.2231 27.3652 29.1407 19.1436 32.7363L16 25.6251C25.1083 21.63 33.6524 19.4727 41.8741 19.0732C48.1612 18.7536 53.3199 19.4727 57.5919 21.3903C60.9773 22.8285 63.8791 25.2256 65.9748 28.0221C67.9899 30.8186 69.1184 33.9348 69.1184 37.1308C69.1184 37.6901 69.1184 38.1695 69.0378 38.7288C68.3929 45.6003 63.4761 50.8738 59.7683 54.3095C57.3501 56.5467 54.7708 58.5443 52.272 60.4619C50.1763 62.0599 48.2418 63.578 46.3879 65.1761C44.2116 67.0937 41.3904 69.6505 39.1335 72.447C36.8766 75.2436 35.4257 77.8803 34.7809 80.4371C34.4584 81.5558 34.2166 83.2337 34.7809 84.592C35.3451 85.9503 36.0705 86.3498 36.796 86.5895C40.262 87.7081 47.6776 85.3111 55.738 80.4371C56.8665 79.7979 57.9144 79.0788 59.0428 78.4396C64.5239 75.0039 70.2469 71.4882 76.8564 69.8902C80.403 69.0113 86.932 68.1324 91.5265 71.8877C93.461 73.4058 94.8312 75.6431 95.5567 78.2798C96.1209 80.3572 96.3627 82.6744 96.1209 84.9915C95.5567 90.1052 93.461 94.4997 91.3652 98.7345C90.7204 100.173 89.995 101.451 89.4307 102.809C88.2217 105.526 87.5768 108.083 87.335 110.32C87.0932 112.717 87.4962 114.795 88.5441 116.393C90.0756 118.949 93.461 120.627 97.4106 121.027C101.521 121.426 105.874 120.468 110.066 119.589L112 127.259Z" fill="#FFC70A"/>
<path d="M35.6875 53.3477H50.265V82.5027H35.6875V53.3477Z" fill="#008CFF"/>
<path d="M35.6875 82.5029H123.153V106.799H35.6875V82.5029Z" fill="#0068FF"/>
<path d="M30.8203 106.799H128.004V109.228H30.8203V106.799Z" fill="#17273F"/>
<path d="M108.57 53.3477H123.148V82.5027H108.57V53.3477Z" fill="#008CFF"/>
<path d="M44.3379 38.7705H114.182L123.153 53.348H35.6875L44.3379 38.7705Z" fill="#0068FF"/>
<path d="M50.25 53.3477H108.56V82.5027H50.25V53.3477Z" fill="#17273F"/>
<path d="M45.4058 53.3477C45.4058 54.6364 44.8939 55.8723 43.9826 56.7836C43.0714 57.6949 41.8354 58.2068 40.5467 58.2068C39.2579 58.2068 38.022 57.6949 37.1107 56.7836C36.1994 55.8723 35.6875 54.6364 35.6875 53.3477L40.5467 53.3477H45.4058Z" fill="#FFC70A"/>
<path d="M55.1168 53.3477C55.1168 54.6364 54.6048 55.8723 53.6936 56.7836C52.7823 57.6949 51.5463 58.2068 50.2576 58.2068C48.9689 58.2068 47.7329 57.6949 46.8217 56.7836C45.9104 55.8723 45.3984 54.6364 45.3984 53.3477L50.2576 53.3477H55.1168Z" fill="#FF5319"/>
<path d="M64.8355 53.3477C64.8355 54.6364 64.3236 55.8723 63.4123 56.7836C62.501 57.6949 61.2651 58.2068 59.9764 58.2068C58.6876 58.2068 57.4517 57.6949 56.5404 56.7836C55.6291 55.8723 55.1172 54.6364 55.1172 53.3477L59.9764 53.3477H64.8355Z" fill="#FFC70A"/>
<path d="M74.5543 53.3477C74.5543 54.6364 74.0423 55.8723 73.1311 56.7836C72.2198 57.6949 70.9838 58.2068 69.6951 58.2068C68.4064 58.2068 67.1704 57.6949 66.2592 56.7836C65.3479 55.8723 64.8359 54.6364 64.8359 53.3477L69.6951 53.3477H74.5543Z" fill="#FF5319"/>
<path d="M84.2652 53.3477C84.2652 54.6364 83.7533 55.8723 82.842 56.7836C81.9307 57.6949 80.6948 58.2068 79.406 58.2068C78.1173 58.2068 76.8814 57.6949 75.9701 56.7836C75.0588 55.8723 74.5469 54.6364 74.5469 53.3477L79.406 53.3477H84.2652Z" fill="#FFC70A"/>
<path d="M93.9918 53.3477C93.9918 54.6364 93.4798 55.8723 92.5686 56.7836C91.6573 57.6949 90.4213 58.2068 89.1326 58.2068C87.8439 58.2068 86.6079 57.6949 85.6967 56.7836C84.7854 55.8723 84.2734 54.6364 84.2734 53.3477L89.1326 53.3477H93.9918Z" fill="#FF5319"/>
<path d="M103.711 53.3477C103.711 54.6364 103.199 55.8723 102.287 56.7836C101.376 57.6949 100.14 58.2068 98.8514 58.2068C97.5626 58.2068 96.3267 57.6949 95.4154 56.7836C94.5041 55.8723 93.9922 54.6364 93.9922 53.3477L98.8514 53.3477H103.711Z" fill="#FFC70A"/>
<path d="M113.421 53.3477C113.421 54.6364 112.91 55.8723 111.998 56.7836C111.087 57.6949 109.851 58.2068 108.562 58.2068C107.274 58.2068 106.038 57.6949 105.126 56.7836C104.215 55.8723 103.703 54.6364 103.703 53.3477L108.562 53.3477H113.421Z" fill="#FF5319"/>
<path d="M123.14 53.3477C123.14 54.6364 122.628 55.8723 121.717 56.7836C120.806 57.6949 119.57 58.2068 118.281 58.2068C116.992 58.2068 115.756 57.6949 114.845 56.7836C113.934 55.8723 113.422 54.6364 113.422 53.3477L118.281 53.3477H123.14Z" fill="#FFC70A"/>
</svg>
