<svg width="81" height="80" viewBox="0 0 81 80" fill="none" xmlns="http://www.w3.org/2000/svg">
<path d="M70.8505 39.9997C70.8505 55.5235 58.1451 68.1078 42.4721 68.1078C26.7992 68.1078 14.0938 55.5235 14.0938 39.9997C14.0938 24.476 26.7992 11.8916 42.4721 11.8916C58.1451 11.8916 70.8505 24.476 70.8505 39.9997Z" fill="#F498C4"/>
<path d="M14.0938 11.8916H42.2019V39.9997H14.0938V11.8916Z" fill="#FF5319"/>
<path d="M60.0403 68.7889C57.5571 69.3073 54.7684 69.9548 51.8927 69.6527C50.3242 69.5229 48.7993 69.0483 47.4486 68.4002C45.9236 67.6229 44.7037 66.4997 43.8758 65.1608C42.0895 62.224 42.133 58.3802 44.0937 53.9317C44.4423 53.1111 44.8344 52.3336 45.183 51.5562C46.1851 49.4832 47.1436 47.5396 47.3615 45.5097C47.4922 44.3004 47.2308 42.7455 46.4029 42.0977C45.6622 41.493 44.0501 41.4067 42.1766 41.8386C39.2574 42.5728 36.5997 44.214 33.7676 45.9416C33.1576 46.3303 32.5476 46.6758 31.9377 47.0645C30.5434 47.9283 28.3649 49.0944 26.0122 50.0014C24.6179 50.5197 23.3108 50.8652 22.178 51.038C20.653 51.2539 19.3024 51.1675 18.126 50.7788C16.4268 50.2174 15.1632 48.9649 14.4661 47.2373C13.8997 45.8552 13.8561 44.1708 14.2918 42.4432C14.8147 40.4565 15.8168 38.5129 17.4289 36.5262C18.8231 34.7986 20.5223 33.2438 21.8294 32.0777C22.9187 31.0843 24.0951 30.2205 25.2279 29.3567C26.5785 28.3202 27.8421 27.37 28.9749 26.2902C30.4563 24.9082 32.4169 22.8351 32.6348 20.546C32.8527 18.2138 30.9356 16.2702 28.9314 15.4064C27.2321 14.629 25.1408 14.3699 22.3523 14.4995C18.3874 14.7154 14.2918 15.752 9.84768 17.6955L8.14844 13.8516C13.0718 11.6921 17.6903 10.526 22.1344 10.3101C25.5329 10.1373 28.3214 10.526 30.6305 11.5626C32.4605 12.34 34.029 13.6357 35.1618 15.1473C36.2511 16.6589 36.8611 18.3434 36.8611 20.0709C36.8611 20.3733 36.8611 20.6324 36.8175 20.9347C36.4689 24.649 33.8112 27.4996 31.807 29.3567C30.4998 30.566 29.1056 31.6458 27.7549 32.6823C26.6221 33.5461 25.5764 34.3667 24.5743 35.2305C23.398 36.2671 21.873 37.6491 20.653 39.1608C19.4331 40.6724 18.6488 42.0977 18.3003 43.4797C18.126 44.0844 17.9952 44.9914 18.3003 45.7256C18.6052 46.4599 18.9974 46.6758 19.3895 46.8054C21.263 47.41 25.2715 46.1143 29.6284 43.4797C30.2384 43.1342 30.8049 42.7455 31.4148 42.4C34.3776 40.5429 37.471 38.6425 41.0438 37.7787C42.9609 37.3036 46.4901 36.8286 48.9736 38.8584C50.0192 39.679 50.7599 40.8884 51.1521 42.3136C51.457 43.4366 51.5877 44.6891 51.457 45.9416C51.1521 48.7057 50.0192 51.0812 48.8864 53.3702C48.5378 54.1478 48.1457 54.8386 47.8407 55.5727C47.1872 57.0413 46.8386 58.4235 46.7079 59.6327C46.5772 60.9283 46.795 62.0516 47.3615 62.9154C48.1893 64.297 50.0192 65.204 52.1542 65.4202C54.376 65.6359 56.729 65.1181 58.9949 64.6429L60.0403 68.7889Z" fill="#FFC70A"/>
<path d="M18.7891 28.8369H26.6688V44.5964H18.7891V28.8369Z" fill="#008CFF"/>
<path d="M18.7891 44.5957H66.0677V57.7287H18.7891V44.5957Z" fill="#0068FF"/>
<path d="M16.1562 57.7295H68.688V59.0425H16.1562V57.7295Z" fill="#17273F"/>
<path d="M58.1875 28.8369H66.0675V44.5964H58.1875V28.8369Z" fill="#008CFF"/>
<path d="M23.465 20.957H61.2185L66.0677 28.8368H18.7891L23.465 20.957Z" fill="#0068FF"/>
<path d="M26.6641 28.8369H58.183V44.5964H26.6641V28.8369Z" fill="#17273F"/>
<path d="M24.0422 28.8369C24.0422 29.5335 23.7655 30.2016 23.2729 30.6942C22.7804 31.1868 22.1123 31.4635 21.4157 31.4635C20.719 31.4635 20.051 31.1868 19.5584 30.6942C19.0658 30.2016 18.7891 29.5335 18.7891 28.8369H21.4157H24.0422Z" fill="#FFC70A"/>
<path d="M29.2923 28.8369C29.2923 29.5335 29.0155 30.2016 28.523 30.6942C28.0304 31.1868 27.3623 31.4635 26.6657 31.4635C25.9691 31.4635 25.301 31.1868 24.8084 30.6942C24.3158 30.2016 24.0391 29.5335 24.0391 28.8369H26.6657H29.2923Z" fill="#FF5319"/>
<path d="M34.55 28.8369C34.55 29.5335 34.2733 30.2016 33.7807 30.6942C33.2881 31.1868 32.6201 31.4635 31.9235 31.4635C31.2268 31.4635 30.5588 31.1868 30.0662 30.6942C29.5736 30.2016 29.2969 29.5335 29.2969 28.8369H31.9235H34.55Z" fill="#FFC70A"/>
<path d="M39.8001 28.8369C39.8001 29.5335 39.5233 30.2016 39.0308 30.6942C38.5382 31.1868 37.8701 31.4635 37.1735 31.4635C36.4769 31.4635 35.8088 31.1868 35.3162 30.6942C34.8236 30.2016 34.5469 29.5335 34.5469 28.8369H37.1735H39.8001Z" fill="#FF5319"/>
<path d="M45.05 28.8369C45.05 29.5335 44.7733 30.2016 44.2807 30.6942C43.7881 31.1868 43.1201 31.4635 42.4234 31.4635C41.7268 31.4635 41.0588 31.1868 40.5662 30.6942C40.0736 30.2016 39.7969 29.5335 39.7969 28.8369H42.4234H45.05Z" fill="#FFC70A"/>
<path d="M50.3079 28.8369C50.3079 29.5335 50.0311 30.2016 49.5386 30.6942C49.046 31.1868 48.3779 31.4635 47.6813 31.4635C46.9847 31.4635 46.3166 31.1868 45.824 30.6942C45.3314 30.2016 45.0547 29.5335 45.0547 28.8369H47.6813H50.3079Z" fill="#FF5319"/>
<path d="M55.5581 28.8369C55.5581 29.5335 55.2813 30.2016 54.7884 30.6942C54.2959 31.1868 53.6278 31.4635 52.9313 31.4635C52.2346 31.4635 51.5666 31.1868 51.074 30.6942C50.5814 30.2016 50.3047 29.5335 50.3047 28.8369H52.9313H55.5581Z" fill="#FFC70A"/>
<path d="M60.8077 28.8369C60.8077 29.5335 60.5314 30.2016 60.0385 30.6942C59.546 31.1868 58.8779 31.4635 58.1812 31.4635C57.485 31.4635 56.8168 31.1868 56.3239 30.6942C55.8314 30.2016 55.5547 29.5335 55.5547 28.8369H58.1812H60.8077Z" fill="#FF5319"/>
<path d="M66.0655 28.8369C66.0655 29.5335 65.7887 30.2016 65.2963 30.6942C64.8039 31.1868 64.1357 31.4635 63.439 31.4635C62.7422 31.4635 62.0741 31.1868 61.5817 30.6942C61.0893 30.2016 60.8125 29.5335 60.8125 28.8369H63.439H66.0655Z" fill="#FFC70A"/>
</svg>
