<svg width="20" height="20" viewBox="0 0 20 20" fill="none" xmlns="http://www.w3.org/2000/svg">
<mask id="mask0_22_939" style="mask-type:alpha" maskUnits="userSpaceOnUse" x="0" y="0" width="20" height="20">
<rect width="20" height="20" fill="#D9D9D9"/>
</mask>
<g mask="url(#mask0_22_939)">
<path d="M10.0056 12.5C9.73402 12.5 9.50446 12.4107 9.31696 12.232C9.12946 12.0534 9.03571 11.832 9.03571 11.568C9.03571 11.3039 9.12759 11.0807 9.31134 10.8984C9.49509 10.7161 9.72277 10.625 9.99438 10.625C10.266 10.625 10.4955 10.7143 10.683 10.893C10.8705 11.0716 10.9643 11.293 10.9643 11.557C10.9643 11.8211 10.8724 12.0443 10.6887 12.2266C10.5049 12.4089 10.2772 12.5 10.0056 12.5ZM5.82705 12.5C5.55545 12.5 5.32589 12.4107 5.13839 12.232C4.95089 12.0534 4.85714 11.832 4.85714 11.568C4.85714 11.3039 4.94902 11.0807 5.13277 10.8984C5.31652 10.7161 5.5442 10.625 5.8158 10.625C6.08741 10.625 6.31696 10.7143 6.50446 10.893C6.69196 11.0716 6.78571 11.293 6.78571 11.557C6.78571 11.8211 6.69384 12.0443 6.51009 12.2266C6.32634 12.4089 6.09866 12.5 5.82705 12.5ZM14.1842 12.5C13.9126 12.5 13.683 12.4107 13.4955 12.232C13.308 12.0534 13.2143 11.832 13.2143 11.568C13.2143 11.3039 13.3062 11.0807 13.4899 10.8984C13.6737 10.7161 13.9013 10.625 14.1729 10.625C14.4446 10.625 14.6741 10.7143 14.8616 10.893C15.0491 11.0716 15.1429 11.293 15.1429 11.557C15.1429 11.8211 15.051 12.0443 14.8672 12.2266C14.6835 12.4089 14.4558 12.5 14.1842 12.5ZM10.0056 16.25C9.73402 16.25 9.50446 16.1607 9.31696 15.982C9.12946 15.8034 9.03571 15.582 9.03571 15.318C9.03571 15.0539 9.12759 14.8307 9.31134 14.6484C9.49509 14.4661 9.72277 14.375 9.99438 14.375C10.266 14.375 10.4955 14.4643 10.683 14.643C10.8705 14.8216 10.9643 15.043 10.9643 15.307C10.9643 15.5711 10.8724 15.7943 10.6887 15.9766C10.5049 16.1589 10.2772 16.25 10.0056 16.25ZM5.82705 16.25C5.55545 16.25 5.32589 16.1607 5.13839 15.982C4.95089 15.8034 4.85714 15.582 4.85714 15.318C4.85714 15.0539 4.94902 14.8307 5.13277 14.6484C5.31652 14.4661 5.5442 14.375 5.8158 14.375C6.08741 14.375 6.31696 14.4643 6.50446 14.643C6.69196 14.8216 6.78571 15.043 6.78571 15.307C6.78571 15.5711 6.69384 15.7943 6.51009 15.9766C6.32634 16.1589 6.09866 16.25 5.82705 16.25ZM14.1842 16.25C13.9126 16.25 13.683 16.1607 13.4955 15.982C13.308 15.8034 13.2143 15.582 13.2143 15.318C13.2143 15.0539 13.3062 14.8307 13.4899 14.6484C13.6737 14.4661 13.9013 14.375 14.1729 14.375C14.4446 14.375 14.6741 14.4643 14.8616 14.643C15.0491 14.8216 15.1429 15.043 15.1429 15.307C15.1429 15.5711 15.051 15.7943 14.8672 15.9766C14.6835 16.1589 14.4558 16.25 14.1842 16.25ZM2.92857 20C2.39821 20 1.9442 19.8134 1.56652 19.4401C1.18884 19.0668 1 18.6285 1 18.125V4.375C1 3.87153 1.18884 3.43316 1.56652 3.0599C1.9442 2.68663 2.39821 2.5 2.92857 2.5H4.85714V0H6.78571V2.5H13.2143V0H15.1429V2.5H17.0714C17.6018 2.5 18.0558 2.68663 18.4335 3.0599C18.8112 3.43316 19 3.87153 19 4.375V18.125C19 18.6285 18.8112 19.0668 18.4335 19.4401C18.0558 19.8134 17.6018 20 17.0714 20H2.92857ZM2.92857 18.125H17.0714V8.75H2.92857V18.125Z" fill="black"/>
</g>
</svg>
