<svg width="20" height="20" viewBox="0 0 20 20" fill="none" xmlns="http://www.w3.org/2000/svg">
<mask id="mask0_22_943" style="mask-type:alpha" maskUnits="userSpaceOnUse" x="0" y="0" width="20" height="20">
<rect width="20" height="20" fill="#D9D9D9"/>
</mask>
<g mask="url(#mask0_22_943)">
<path d="M5.82705 11.875C5.55545 11.875 5.32589 11.7857 5.13839 11.607C4.95089 11.4284 4.85714 11.207 4.85714 10.943C4.85714 10.6789 4.94902 10.4557 5.13277 10.2734C5.31652 10.0911 5.5442 10 5.8158 10C6.08741 10 6.31696 10.0893 6.50446 10.268C6.69196 10.4466 6.78571 10.668 6.78571 10.932C6.78571 11.1961 6.69384 11.4193 6.51009 11.6016C6.32634 11.7839 6.09866 11.875 5.82705 11.875ZM10.0056 11.875C9.73402 11.875 9.50446 11.7857 9.31696 11.607C9.12946 11.4284 9.03571 11.207 9.03571 10.943C9.03571 10.6789 9.12759 10.4557 9.31134 10.2734C9.49509 10.0911 9.72277 10 9.99438 10C10.266 10 10.4955 10.0893 10.683 10.268C10.8705 10.4466 10.9643 10.668 10.9643 10.932C10.9643 11.1961 10.8724 11.4193 10.6887 11.6016C10.5049 11.7839 10.2772 11.875 10.0056 11.875ZM14.1842 11.875C13.9126 11.875 13.683 11.7857 13.4955 11.607C13.308 11.4284 13.2143 11.207 13.2143 10.943C13.2143 10.6789 13.3062 10.4557 13.4899 10.2734C13.6737 10.0911 13.9013 10 14.1729 10C14.4446 10 14.6741 10.0893 14.8616 10.268C15.0491 10.4466 15.1429 10.668 15.1429 10.932C15.1429 11.1961 15.051 11.4193 14.8672 11.6016C14.6835 11.7839 14.4558 11.875 14.1842 11.875ZM2.92857 20C2.39821 20 1.9442 19.8134 1.56652 19.4401C1.18884 19.0668 1 18.6285 1 18.125V4.375C1 3.87153 1.18884 3.43316 1.56652 3.0599C1.9442 2.68663 2.39821 2.5 2.92857 2.5H4.85714V0H6.78571V2.5H13.2143V0H15.1429V2.5H17.0714C17.6018 2.5 18.0558 2.68663 18.4335 3.0599C18.8112 3.43316 19 3.87153 19 4.375V18.125C19 18.6285 18.8112 19.0668 18.4335 19.4401C18.0558 19.8134 17.6018 20 17.0714 20H2.92857ZM2.92857 18.125H17.0714V8.75H2.92857V18.125Z" fill="#1C1B1F"/>
</g>
</svg>
