<svg width="20" height="20" viewBox="0 0 20 20" fill="none" xmlns="http://www.w3.org/2000/svg">
<g id="today">
<mask id="mask0_143_2729" style="mask-type:alpha" maskUnits="userSpaceOnUse" x="0" y="0" width="20" height="20">
<rect id="Bounding box" width="20" height="20" fill="#D9D9D9"/>
</mask>
<g mask="url(#mask0_143_2729)">
<path id="today_2" d="M7.43473 15.625C6.71634 15.625 6.10714 15.3839 5.60714 14.9018C5.10714 14.4195 4.85714 13.8293 4.85714 13.131C4.85714 12.4326 5.10509 11.8403 5.60098 11.3542C6.09705 10.8681 6.7042 10.625 7.42241 10.625C8.1408 10.625 8.75 10.8661 9.25 11.3482C9.75 11.8305 10 12.4207 10 13.119C10 13.8174 9.75205 14.4097 9.25616 14.8958C8.76009 15.3819 8.15295 15.625 7.43473 15.625ZM2.92857 20C2.39821 20 1.9442 19.8134 1.56652 19.4401C1.18884 19.0668 1 18.6285 1 18.125V4.375C1 3.87153 1.18884 3.43316 1.56652 3.0599C1.9442 2.68663 2.39821 2.5 2.92857 2.5H4.85714V0H6.78571V2.5H13.2143V0H15.1429V2.5H17.0714C17.6018 2.5 18.0558 2.68663 18.4335 3.0599C18.8112 3.43316 19 3.87153 19 4.375V18.125C19 18.6285 18.8112 19.0668 18.4335 19.4401C18.0558 19.8134 17.6018 20 17.0714 20H2.92857ZM2.92857 18.125H17.0714V8.75H2.92857V18.125Z" fill="#1C1B1F"/>
</g>
</g>
</svg>
